<svg width="50" height="50" viewBox="0 0 50 50" fill="none" xmlns="http://www.w3.org/2000/svg">
<g clip-path="url(#clip0_14_320)">
<path d="M0.000130535 19.9839C0.0412086 19.9764 0.0748892 19.9648 0.108439 19.9648C1.49291 19.9702 2.87747 19.9682 4.26177 19.9875C4.73355 19.994 5.16705 20.1604 5.55464 20.4363C6.43934 21.0659 6.52106 22.8643 5.30656 23.5094C5.24477 23.5422 5.18324 23.5754 5.09934 23.6202C5.33014 23.7262 5.5572 23.7972 5.74754 23.9236C6.47802 24.4089 6.77554 25.4947 6.44852 26.4483C6.16315 27.2804 5.48562 27.624 4.6977 27.8068C4.43891 27.8668 4.1679 27.898 3.90211 27.8998C2.60794 27.9092 1.31367 27.904 0 27.904C0.000130545 25.267 0.000130535 22.6297 0.000130535 19.9839ZM1.3843 26.7433C2.34685 26.7433 3.28164 26.7652 4.21468 26.7354C4.80122 26.7166 5.22506 26.0879 5.18976 25.4764C5.155 24.8736 4.78381 24.361 4.21007 24.3342C3.28507 24.291 2.35755 24.3032 1.43103 24.2936C1.41719 24.2935 1.40314 24.3139 1.38425 24.3285L1.3843 26.7433ZM1.38752 23.2617C2.24785 23.2617 3.07755 23.293 3.90355 23.2513C4.51185 23.2205 4.85518 22.7342 4.83242 22.0693C4.81227 21.4806 4.46468 21.1266 3.83889 21.1101C3.05427 21.0895 2.26878 21.099 1.4836 21.0972C1.45166 21.0971 1.41967 21.1143 1.38752 21.1235V23.2617ZM44.2895 22.1737H45.4436V22.7922C45.5721 22.6931 45.7286 22.583 45.873 22.4591C46.7572 21.7002 48.8546 21.7933 49.5724 23.3216C50.1901 24.6369 50.1633 25.9596 49.3294 27.1841C48.8676 27.8623 48.1525 28.1047 47.3425 28.0611C46.6386 28.0231 46.019 27.8019 45.5314 27.1503V30.0343H44.2896C44.2895 27.4118 44.2895 24.8002 44.2895 22.1737ZM45.4619 25.0698C45.5139 25.3579 45.5425 25.6528 45.6229 25.9327C45.8023 26.5574 46.3486 27.0194 46.9145 27.0593C47.6714 27.1127 48.215 26.833 48.4886 26.1619C48.8364 25.3091 48.8241 24.449 48.3158 23.6519C47.7164 22.7117 46.2799 22.7903 45.7719 23.7752C45.5628 24.1807 45.4604 24.6075 45.4619 25.0698ZM43.4719 27.0836C43.4719 27.3193 43.4802 27.5587 43.4659 27.7968C43.4624 27.8556 43.3886 27.9549 43.3409 27.959C42.981 27.989 42.6151 28.0415 42.2598 28.0044C41.9465 27.9717 41.7739 27.7061 41.6773 27.3991C40.9337 28.0045 40.0809 28.1355 39.1737 28.0231C38.4151 27.9291 37.7867 27.3062 37.7326 26.6146C37.658 25.6613 38.0242 25.0406 38.8802 24.8147C39.4804 24.6563 40.1057 24.5926 40.7196 24.4856C40.8685 24.4597 41.0192 24.4385 41.1646 24.3988C41.444 24.3225 41.6455 24.1679 41.6659 23.8499C41.6871 23.5211 41.5596 23.265 41.2507 23.1406C40.7234 22.9285 40.1866 22.9337 39.6675 23.1766C39.4306 23.2874 39.2899 23.5104 39.1659 23.8891H37.9494C37.9504 23.4254 38.1118 23.0356 38.4199 22.7075C38.8268 22.274 39.3571 22.1038 39.9283 22.044C40.5262 21.9815 41.1207 21.9843 41.7016 22.1801C42.4827 22.4435 42.8568 22.9589 42.8556 23.7839C42.8545 24.6597 42.8553 25.5355 42.8551 26.4114C42.8549 27.033 42.8549 27.033 43.4719 27.0836ZM41.5919 25.1073C41.2085 25.1737 40.8577 25.2246 40.5116 25.297C40.1475 25.3732 39.7764 25.4392 39.4292 25.5663C39.0889 25.691 38.9732 26.0091 38.9845 26.3507C38.9952 26.6773 39.2183 26.8603 39.5058 26.9607C39.9989 27.133 40.4932 27.1118 40.9635 26.8918C41.3003 26.7342 41.5568 26.4766 41.5869 26.083C41.6118 25.7552 41.5919 25.4239 41.5919 25.1073ZM10.2913 22.0082C12.199 21.9858 13.3177 23.3842 13.1997 25.2882C13.1588 25.9501 12.9809 26.5686 12.5453 27.0916C12.0759 27.6552 11.4718 27.952 10.7477 28.0325C10.143 28.0999 9.55544 28.0603 8.99515 27.806C8.16075 27.4272 7.68478 26.7661 7.48457 25.8854C7.34728 25.2817 7.35328 24.6805 7.5072 24.0834C7.84674 22.7661 8.86112 22.0133 10.2913 22.0082ZM8.63062 25.0467C8.68071 25.3262 8.70686 25.6127 8.78549 25.8839C8.98562 26.5745 9.53064 27.0304 10.1538 27.0606C10.924 27.0979 11.463 26.7739 11.7492 26.0565C12.0287 25.356 12.0291 24.6392 11.7227 23.9472C11.2687 22.9221 10.0318 22.6599 9.23539 23.4219C8.78123 23.8564 8.664 24.4337 8.63062 25.0467ZM16.9101 22.0083C18.6308 22.0056 19.8016 23.1651 19.8233 24.8897C19.8325 25.6179 19.7139 26.3123 19.2864 26.9224C18.6745 27.7957 17.7906 28.1013 16.773 28.0549C16.3981 28.0378 16.0094 27.9545 15.66 27.8174C14.8396 27.4953 14.3504 26.8612 14.133 26.0125C13.9422 25.2672 13.9634 24.5266 14.2061 23.7982C14.5784 22.6808 15.5996 22.0102 16.9101 22.0083ZM18.5594 24.8919C18.5316 24.7389 18.5042 24.4434 18.4218 24.164C18.2122 23.4535 17.6582 23.0221 16.9602 22.9918C16.3029 22.9632 15.7116 23.3507 15.4567 24.0295C15.1564 24.829 15.1785 25.6254 15.631 26.3703C16.1023 27.1464 17.1708 27.3164 17.8716 26.7374C18.4062 26.2956 18.5371 25.6856 18.5594 24.8919ZM29.198 23.7667C28.8053 23.7667 28.4229 23.77 28.0408 23.7627C27.9937 23.7618 27.9204 23.7146 27.9053 23.6724C27.6904 23.0755 27.1848 23.0045 26.6619 23.0015C26.4452 23.0002 26.2145 23.053 26.0137 23.1372C25.5847 23.3172 25.537 23.8026 25.9391 24.0351C26.2181 24.1964 26.5455 24.283 26.8602 24.3716C27.3053 24.497 27.7649 24.5725 28.2072 24.7061C29.338 25.048 29.78 26.1818 29.1468 27.1165C28.8431 27.5647 28.3889 27.8074 27.868 27.9331C27.0983 28.1188 26.3319 28.1325 25.5797 27.8608C24.7748 27.57 24.3496 26.9864 24.2869 26.103H25.515C25.8642 27.0145 26.851 27.3695 27.7754 26.9037C27.9892 26.7959 28.132 26.6426 28.1463 26.3905C28.1615 26.1212 28.0575 25.8895 27.8157 25.7994C27.3848 25.6386 26.9347 25.5284 26.4922 25.3987C26.1257 25.2912 25.7476 25.2136 25.394 25.0736C24.7117 24.8034 24.4153 24.3386 24.4195 23.63C24.4231 23.0119 24.7845 22.4823 25.4251 22.25C26.3068 21.9303 27.2066 21.8906 28.0922 22.2375C28.691 22.472 29.0479 22.9346 29.1963 23.5574C29.2097 23.6149 29.198 23.6786 29.198 23.7667ZM22.5299 22.1577H23.6667V23.0872H22.5528C22.5449 23.1985 22.5348 23.2764 22.5346 23.3543C22.5336 24.2925 22.5331 25.2307 22.5351 26.1687C22.5353 26.2936 22.545 26.4188 22.5573 26.5431C22.5817 26.7912 22.7194 26.9385 22.9692 26.9521C23.1981 26.9647 23.4283 26.9548 23.6706 26.9548V27.8843C23.1515 28.0128 22.6238 28.006 22.113 27.8922C21.5182 27.7597 21.2765 27.3505 21.2713 26.5758C21.2641 25.5215 21.2692 24.4671 21.269 23.4127V23.1027H20.3249V22.1626H21.2562V20.4411H22.5301C22.5299 21.0042 22.5299 21.5632 22.5299 22.1577ZM33.161 27.9201C32.6719 27.9201 32.2089 27.9353 31.7474 27.9157C31.3001 27.8967 30.9557 27.6001 30.8579 27.1574C30.8022 26.9049 30.7727 26.6474 30.7699 26.3888C30.76 25.3969 30.7658 24.4047 30.7658 23.4127V23.099H29.8248V22.1713H30.7518V20.4427H32.0281V22.1432H33.1594V23.0777H32.0738C32.0609 23.1619 32.044 23.2201 32.044 23.2785C32.043 24.2884 32.0398 25.2983 32.0463 26.3082C32.0498 26.8423 32.1896 26.9708 32.719 26.967C32.8605 26.9661 33.0021 26.967 33.1611 26.967L33.161 27.9201ZM35.284 22.1769V23.1549C35.7741 22.3227 36.4525 21.8891 37.4542 22.0369V23.2435C36.9783 23.1719 36.5193 23.1592 36.1128 23.4513C35.5796 23.8346 35.3934 24.3948 35.3801 25.0122C35.3596 25.9667 35.3748 26.9221 35.3748 27.8979H34.1247V22.1768C34.5034 22.1769 34.8741 22.1769 35.284 22.1769Z" fill="black"/>
</g>
<defs>
<clipPath id="clip0_14_320">
<rect width="50" height="50" fill="white"/>
</clipPath>
</defs>
</svg>
