<svg width="50" height="50" viewBox="0 0 50 50" fill="none" xmlns="http://www.w3.org/2000/svg">
<path d="M15.832 30.3982V19.8201H16.4062V21.4841C16.4741 21.4104 16.5367 21.3321 16.5937 21.2498C16.8284 20.7627 17.197 20.3526 17.6564 20.0676C18.1158 19.7825 18.6469 19.6343 19.1875 19.6404C20.4961 19.6013 21.5586 20.0857 22.1836 21.2498C22.5813 21.9729 22.8001 22.7807 22.8219 23.6057C22.8436 24.4307 22.6676 25.2489 22.3086 25.9919C21.7266 27.2966 20.2891 27.9451 18.75 27.7068C18.2711 27.666 17.8099 27.5059 17.4087 27.2412C17.0075 26.9764 16.679 26.6155 16.4531 26.1912V30.3982H15.832ZM16.4062 23.5623C16.457 24.0779 16.4766 24.4451 16.5352 24.8044C16.7617 26.2185 17.5977 27.0584 18.9102 27.2107C19.5264 27.312 20.1588 27.1965 20.6994 26.8838C21.24 26.5711 21.6555 26.0806 21.875 25.4958C22.1272 24.8944 22.2486 24.2462 22.2311 23.5943C22.2136 22.9424 22.0576 22.3016 21.7734 21.7146C21.5391 21.1905 21.1407 20.7569 20.6382 20.4793C20.1358 20.2016 19.5567 20.095 18.9883 20.1755C18.4546 20.2142 17.9463 20.4182 17.534 20.7591C17.1216 21.1001 16.8257 21.561 16.6875 22.0779C16.5652 22.5668 16.4712 23.0624 16.4062 23.5623ZM34.5352 24.9998C34.4482 25.7445 34.0936 26.4324 33.5375 26.9353C32.9813 27.4383 32.2615 27.7222 31.5117 27.7341C29.1055 27.8552 27.9766 26.2576 27.7969 24.4138C27.6722 23.4126 27.8347 22.3965 28.2656 21.4841C28.5657 20.8583 29.0571 20.3442 29.6688 20.0163C30.2805 19.6883 30.9807 19.5635 31.668 19.6599C32.3214 19.7153 32.9408 19.9748 33.4386 20.4018C33.9364 20.8287 34.2872 21.4014 34.4414 22.0388C34.5637 22.6193 34.6536 23.2062 34.7109 23.7966H28.3867C28.2695 25.4685 29.168 26.8123 30.4414 27.1365C32.0273 27.5271 33.3828 26.8396 33.875 25.3318C33.9844 24.9451 34.1836 24.8904 34.5352 24.9998ZM28.3867 23.2615H34.0391C34.0039 21.4802 32.8945 20.1912 31.3906 20.1716C29.6875 20.1443 28.4609 21.3865 28.3867 23.2615ZM35.6992 25.0388H36.2539C36.2744 25.447 36.407 25.8416 36.6372 26.1793C36.8674 26.5169 37.1862 26.7846 37.5586 26.9529C38.0262 27.1633 38.5353 27.2656 39.048 27.2521C39.5606 27.2385 40.0636 27.1096 40.5195 26.8748C40.768 26.7628 40.9761 26.5772 41.1158 26.3432C41.2555 26.1092 41.3201 25.838 41.3008 25.5662C41.3151 25.304 41.2435 25.0443 41.0968 24.8265C40.9502 24.6086 40.7366 24.4446 40.4883 24.3591C39.8789 24.1326 39.2305 24.0076 38.6094 23.8083C37.9631 23.6243 37.3312 23.3932 36.7188 23.1169C35.7188 22.6287 35.6562 20.7263 36.7891 20.1248C37.3691 19.7974 38.0219 19.6206 38.6879 19.6103C39.3538 19.6001 40.0117 19.7568 40.6016 20.0662C40.9589 20.2636 41.2475 20.5653 41.4289 20.931C41.6104 21.2967 41.6761 21.7091 41.6172 22.113H41.1406C41.1406 22.0896 41.0977 22.0701 41.0977 22.0466C41.0391 20.5271 39.7656 20.0583 38.3984 20.1912C37.9903 20.2415 37.5939 20.3618 37.2266 20.5466C37.0059 20.6476 36.822 20.8145 36.7002 21.0244C36.5785 21.2343 36.5249 21.4768 36.5469 21.7185C36.5476 21.9603 36.623 22.1959 36.7629 22.3931C36.9027 22.5904 37.1002 22.7395 37.3281 22.8201C37.9297 23.0388 38.5586 23.1794 39.1758 23.3513C39.6719 23.488 40.1875 23.5779 40.668 23.7419C41.0071 23.8531 41.3045 24.0646 41.5207 24.3485C41.7369 24.6324 41.8618 24.9753 41.8789 25.3318C41.9369 25.7224 41.8703 26.1213 41.6887 26.4719C41.5071 26.8225 41.2197 27.107 40.8672 27.2849C39.5625 28.0232 37.4141 27.8279 36.457 26.8943C36.2145 26.6504 36.0226 26.3608 35.8926 26.0423C35.7625 25.7239 35.6968 25.3828 35.6992 25.0388ZM48.9102 22.113H48.3906C48.3906 22.0427 48.3633 21.9802 48.3555 21.9216C48.347 21.5322 48.2051 21.1575 47.9533 20.8602C47.7016 20.563 47.3554 20.3613 46.9727 20.2888C46.2505 20.0816 45.4802 20.1187 44.7812 20.3943C44.505 20.4735 44.2618 20.6399 44.0879 20.8687C43.914 21.0975 43.8188 21.3764 43.8164 21.6638C43.8067 21.946 43.8947 22.223 44.0655 22.4479C44.2363 22.6727 44.4794 22.8318 44.7539 22.8982C45.5352 23.1404 46.3359 23.2888 47.1289 23.5076C47.3859 23.5692 47.6389 23.6462 47.8867 23.738C48.2567 23.8704 48.5782 24.1113 48.8091 24.4293C49.0401 24.7473 49.1697 25.1276 49.1811 25.5204C49.1925 25.9132 49.0851 26.3003 48.873 26.6312C48.6609 26.962 48.3539 27.2212 47.9922 27.3748C47.4409 27.6251 46.8435 27.7575 46.2381 27.7636C45.6327 27.7696 45.0327 27.6492 44.4766 27.4099C44.0192 27.2127 43.6333 26.88 43.3707 26.4568C43.1081 26.0336 42.9815 25.5401 43.0078 25.0427H43.2266H43.5156C43.6096 25.496 43.8126 25.9195 44.1071 26.2766C44.4016 26.6337 44.7787 26.9136 45.2057 27.0921C45.6328 27.2706 46.0969 27.3424 46.558 27.3011C47.019 27.2598 47.463 27.1068 47.8516 26.8552C48.0883 26.7323 48.2847 26.544 48.4177 26.3127C48.5506 26.0815 48.6144 25.817 48.6016 25.5505C48.6133 25.2882 48.5392 25.0292 48.3905 24.8128C48.2417 24.5963 48.0265 24.4343 47.7773 24.3513C47.168 24.1248 46.5195 24.0037 45.8984 23.8044C45.2485 23.6233 44.6127 23.3948 43.9961 23.1208C43.0195 22.6404 42.9414 20.7537 44.0547 20.1521C44.6419 19.8111 45.3075 19.6279 45.9865 19.6203C46.6656 19.6128 47.335 19.7812 47.9297 20.1091C48.2698 20.3122 48.5435 20.6097 48.7176 20.9654C48.8917 21.3212 48.9586 21.7199 48.9102 22.113ZM14.8828 27.5427C14.6783 27.6202 14.4525 27.62 14.2481 27.5423C14.0437 27.4645 13.8748 27.3146 13.7734 27.1209C13.1367 26.1677 12.4336 25.2576 11.7578 24.3279L11.4648 23.9373C10.6602 25.0154 9.85547 26.0505 9.12109 27.1248C9.02541 27.3099 8.86568 27.454 8.67165 27.5302C8.47762 27.6064 8.26252 27.6095 8.06641 27.5388L11.0859 23.488L8.27734 19.8279C8.47952 19.7549 8.70068 19.7539 8.90351 19.825C9.10633 19.8962 9.27839 20.0352 9.39062 20.2185C10.043 21.1716 10.7656 22.0818 11.4844 23.0466C12.207 22.0896 12.9219 21.1755 13.5898 20.2302C13.6861 20.048 13.8459 19.9076 14.0389 19.8356C14.2319 19.7635 14.4447 19.765 14.6367 19.8396L13.5469 21.2849C13.0586 21.9294 12.5781 22.5779 12.0703 23.2068C12.0294 23.2434 11.9967 23.2883 11.9743 23.3384C11.9518 23.3886 11.9403 23.4429 11.9403 23.4978C11.9403 23.5527 11.9518 23.607 11.9743 23.6572C11.9967 23.7073 12.0294 23.7522 12.0703 23.7888C13.0039 25.0271 13.9297 26.2693 14.8828 27.5427ZM27.7031 19.7888V20.3357C27.308 20.3098 26.9119 20.367 26.5403 20.5036C26.1687 20.6403 25.8299 20.8534 25.5457 21.1291C25.2616 21.4048 25.0384 21.737 24.8905 22.1043C24.7427 22.4716 24.6735 22.8658 24.6875 23.2615C24.6875 24.5479 24.6875 25.8344 24.6875 27.1209C24.6875 27.2576 24.6875 27.3943 24.6875 27.5584H24.1289V19.8201H24.6758V21.406C25.3516 20.2498 26.3945 19.8201 27.7031 19.7888ZM0.832031 23.4373C0.914062 23.0466 0.964844 22.6208 1.07812 22.2224C1.75391 19.8201 4.50781 18.8201 6.40234 20.3083C7.51172 21.1794 7.78906 22.4138 7.73437 23.8044H1.48437C1.38281 26.2888 3.17578 27.7888 5.46875 27.0232C5.8407 26.8901 6.17367 26.6666 6.43759 26.3726C6.70151 26.0787 6.88809 25.7237 6.98047 25.3396C7.10156 24.949 7.29688 24.8826 7.66797 24.9959C7.60684 25.4714 7.4387 25.9269 7.17619 26.3281C6.91367 26.7293 6.56362 27.0658 6.15234 27.3123C5.47281 27.6839 4.69318 27.8311 3.92494 27.7328C3.15669 27.6346 2.43918 27.296 1.875 26.7654C1.31686 26.1378 0.979377 25.3449 0.914062 24.5076C0.914062 24.3748 0.863281 24.2419 0.835937 24.1169C0.833333 23.8852 0.832031 23.6586 0.832031 23.4373ZM1.49219 23.2693H7.14453C7.10938 21.4685 5.97266 20.1912 4.45703 20.1794C2.76953 20.156 1.5625 21.406 1.48828 23.2615L1.49219 23.2693Z" fill="black"/>
</svg>
