<svg width="50" height="50" viewBox="0 0 50 50" fill="none" xmlns="http://www.w3.org/2000/svg">
<g clip-path="url(#clip0_14_324)">
<path d="M31.6406 31.6406C35.3081 31.6406 38.2812 28.6675 38.2812 25C38.2812 21.3325 35.3081 18.3594 31.6406 18.3594C27.9731 18.3594 25 21.3325 25 25C25 28.6675 27.9731 31.6406 31.6406 31.6406Z" stroke="black" stroke-width="3" stroke-linecap="round" stroke-linejoin="round"/>
<path d="M25 18.3592V5.07812H18.3594C16.5982 5.07813 14.9091 5.77776 13.6637 7.02312C12.4184 8.26848 11.7187 9.95755 11.7188 11.7188C11.7188 13.48 12.4184 15.169 13.6637 16.4144C14.9091 17.6597 16.5982 18.3594 18.3594 18.3594L25 18.3592Z" stroke="black" stroke-width="3" stroke-linecap="round" stroke-linejoin="round"/>
<path d="M25 31.6403V18.3592H18.3594C16.5982 18.3592 14.9091 19.0588 13.6637 20.3042C12.4184 21.5496 11.7188 23.2386 11.7188 24.9998C11.7188 26.761 12.4184 28.4501 13.6637 29.6955C14.9091 30.9408 16.5982 31.6405 18.3594 31.6405L25 31.6403ZM25 18.3592V5.07812H31.6406C33.4018 5.07813 35.0909 5.77776 36.3363 7.02312C37.5816 8.26848 38.2812 9.95755 38.2812 11.7188C38.2812 13.48 37.5816 15.169 36.3363 16.4144C35.0909 17.6597 33.4018 18.3594 31.6406 18.3594L25 18.3592Z" stroke="black" stroke-width="3" stroke-linecap="round" stroke-linejoin="round"/>
<path d="M25 31.6406V38.2813C25 39.5947 24.6106 40.8786 23.8809 41.9707C23.1512 43.0627 22.1141 43.9139 20.9007 44.4165C19.6873 44.9192 18.3521 45.0507 17.0639 44.7945C15.7757 44.5382 14.5925 43.9058 13.6638 42.9771C12.7351 42.0484 12.1026 40.8651 11.8464 39.577C11.5901 38.2888 11.7216 36.9536 12.2242 35.7402C12.7268 34.5268 13.578 33.4896 14.67 32.76C15.7621 32.0303 17.046 31.6408 18.3594 31.6408L25 31.6406Z" stroke="black" stroke-width="3" stroke-linecap="round" stroke-linejoin="round"/>
</g>
<defs>
<clipPath id="clip0_14_324">
<rect width="50" height="50" fill="white"/>
</clipPath>
</defs>
</svg>
