<svg width="50" height="50" viewBox="0 0 50 50" fill="none" xmlns="http://www.w3.org/2000/svg">
<path d="M28.875 22.3958C28.6778 22.3699 28.4772 22.3887 28.2883 22.451C28.0993 22.5133 27.9268 22.6173 27.7837 22.7555C27.6405 22.8936 27.5304 23.0623 27.4614 23.2489C27.3925 23.4355 27.3665 23.6353 27.3854 23.8333C27.3854 24.5937 27.8021 25.125 28.8333 25.125C29.0181 25.144 29.2048 25.1239 29.3813 25.066C29.5578 25.0081 29.7201 24.9137 29.8576 24.7889C29.9952 24.6641 30.1049 24.5117 30.1797 24.3417C30.2545 24.1717 30.2927 23.9878 30.2917 23.8021C30.3115 23.6116 30.2885 23.4191 30.2241 23.2388C30.1598 23.0584 30.0559 22.8947 29.92 22.7598C29.7841 22.6249 29.6196 22.5222 29.4388 22.4592C29.258 22.3962 29.0653 22.3746 28.875 22.3958ZM27.1667 29.5417C26.9389 29.7598 26.7951 30.0511 26.7604 30.3646C26.7604 30.9896 27.5521 31.1771 28.6458 31.1771C29.5417 31.1771 30.7292 31.1042 30.7292 30.2708C30.7292 29.7708 30.1458 29.7396 29.3958 29.6979L27.125 29.5417H27.1667ZM31.7708 22.4479C32.1407 22.8886 32.3436 23.4455 32.3438 24.0208C32.3438 25.7396 30.9896 26.75 29.0313 26.75C28.6176 26.7538 28.205 26.7084 27.8021 26.6146L27.2917 27.4375L28.8125 27.5313C31.5 27.7083 33.0938 27.7812 33.0938 29.8542C33.0938 31.6354 31.5208 32.6458 28.8125 32.6458C26.1042 32.6458 24.9271 31.9375 24.9271 30.7083C24.9481 30.4046 25.0355 30.1091 25.1831 29.8427C25.3307 29.5764 25.5349 29.3456 25.7813 29.1667C25.5695 29.0906 25.3882 28.948 25.2642 28.7602C25.1403 28.5724 25.0805 28.3496 25.0938 28.125C25.1164 27.7634 25.2766 27.4241 25.5417 27.1771C25.8229 26.875 26.1354 26.5833 26.5104 26.2396C26.0874 26.02 25.7366 25.6831 25.5002 25.2693C25.2637 24.8554 25.1515 24.3822 25.1771 23.9063C25.1771 22.1146 26.3542 20.8854 28.7396 20.8854C29.2202 20.8724 29.7003 20.925 30.1667 21.0417H33.1979V22.3646L31.7708 22.4792M35.9375 19.6146C35.7494 19.6342 35.5592 19.6116 35.381 19.5484C35.2027 19.4852 35.0408 19.383 34.907 19.2492C34.7733 19.1155 34.6711 18.9536 34.6079 18.7753C34.5447 18.597 34.5221 18.4069 34.5417 18.2188C34.5417 17.8458 34.6898 17.4881 34.9536 17.2244C35.2173 16.9607 35.575 16.8125 35.9479 16.8125C36.3209 16.8125 36.6786 16.9607 36.9423 17.2244C37.206 17.4881 37.3542 17.8458 37.3542 18.2188C37.3724 18.4084 37.3481 18.5997 37.283 18.7788C37.2179 18.9578 37.1137 19.1201 36.978 19.2538C36.8423 19.3875 36.6785 19.4893 36.4985 19.5517C36.3185 19.6141 36.1269 19.6356 35.9375 19.6146ZM33.9271 28.9896V27.7396L34.7292 27.625C34.9479 27.625 34.9792 27.5521 34.9792 27.3229V22.7396C34.9895 22.6697 34.974 22.5984 34.9357 22.539C34.8974 22.4796 34.8388 22.4361 34.7708 22.4167L33.9271 22.125L34.1042 20.8333H37.3229V27.2917C37.3229 27.5313 37.3229 27.5625 37.5729 27.5938L38.3646 27.7083V28.9375H33.9271M44.5208 28.3646C43.7272 28.75 42.861 28.963 41.9792 28.9896C40.1354 28.9896 39.4271 28.2396 39.4271 26.4792V22.4063C39.4271 22.3125 39.4271 22.25 39.3021 22.25H38.2604V20.8333C39.625 20.6771 40.1771 19.9896 40.3438 18.3021H41.8229V20.5104C41.8229 20.6146 41.8229 20.6667 41.9479 20.6667H44.1354V22.2188H41.7813V25.9375C41.7813 26.8542 42 27.2083 42.8229 27.2083C43.2548 27.2028 43.682 27.118 44.0833 26.9583L44.5104 28.3333M21.4688 24.2812L14.3542 17.1667C14.2572 17.0675 14.1413 16.9886 14.0134 16.9348C13.8855 16.881 13.7481 16.8533 13.6094 16.8533C13.4706 16.8533 13.3333 16.881 13.2054 16.9348C13.0775 16.9886 12.9616 17.0675 12.8646 17.1667L11.3958 18.6458L13.2708 20.5208C13.4967 20.4432 13.7401 20.4314 13.9724 20.4867C14.2048 20.542 14.4167 20.6622 14.5833 20.8333C14.746 21.001 14.8592 21.2103 14.9107 21.4382C14.9622 21.666 14.9498 21.9037 14.875 22.125L16.6667 23.9583C16.9373 23.8573 17.2346 23.8532 17.508 23.9466C17.7813 24.04 18.0139 24.2252 18.1661 24.4708C18.3184 24.7163 18.3808 25.007 18.343 25.2933C18.3051 25.5797 18.1692 25.8442 17.9583 26.0417C17.7229 26.2714 17.407 26.3999 17.0781 26.3999C16.7492 26.3999 16.4333 26.2714 16.1979 26.0417C16.0215 25.8674 15.9013 25.6442 15.853 25.401C15.8047 25.1577 15.8305 24.9055 15.9271 24.6771L14.2188 22.9167V27.3438C14.3409 27.407 14.4532 27.4877 14.5521 27.5833C14.7669 27.8217 14.8817 28.1336 14.8729 28.4544C14.8641 28.7752 14.7322 29.0802 14.5047 29.3065C14.2771 29.5327 13.9712 29.6628 13.6504 29.6697C13.3296 29.6766 13.0184 29.5599 12.7813 29.3438C12.665 29.2285 12.5728 29.0914 12.5098 28.9403C12.4469 28.7893 12.4145 28.6272 12.4145 28.4635C12.4145 28.2999 12.4469 28.1378 12.5098 27.9868C12.5728 27.8357 12.665 27.6986 12.7813 27.5833C12.895 27.4641 13.0337 27.3716 13.1875 27.3125V22.8333C12.8838 22.7085 12.6414 22.4691 12.5128 22.167C12.3842 21.8648 12.3796 21.5242 12.5 21.2188L10.6667 19.375L5.79167 24.25C5.69404 24.3468 5.61655 24.462 5.56366 24.589C5.51078 24.7159 5.48355 24.8521 5.48355 24.9896C5.48355 25.1271 5.51078 25.2632 5.56366 25.3902C5.61655 25.5171 5.69404 25.6323 5.79167 25.7292L12.9063 32.8438C13.0031 32.9414 13.1183 33.0189 13.2452 33.0718C13.3722 33.1246 13.5083 33.1519 13.6458 33.1519C13.7834 33.1519 13.9195 33.1246 14.0464 33.0718C14.1734 33.0189 14.2886 32.9414 14.3854 32.8438L21.4688 25.7708C21.568 25.6738 21.6468 25.558 21.7006 25.4301C21.7544 25.3022 21.7822 25.1648 21.7822 25.026C21.7822 24.8873 21.7544 24.7499 21.7006 24.622C21.6468 24.4941 21.568 24.3783 21.4688 24.2812Z" fill="black"/>
</svg>
