<svg width="50" height="50" viewBox="0 0 50 50" fill="none" xmlns="http://www.w3.org/2000/svg">
<path d="M44.7245 4.84449C44.5294 4.63108 44.2919 4.46063 44.0273 4.34399C43.7627 4.22734 43.4767 4.16707 43.1875 4.16699H6.8125C6.52333 4.1671 6.23735 4.22738 5.97274 4.34401C5.70814 4.46063 5.4707 4.63104 5.27552 4.8444C5.08034 5.05776 4.93169 5.3094 4.83903 5.58332C4.74638 5.85723 4.71173 6.14744 4.73731 6.43547L7.90398 41.8521C7.94154 42.2742 8.10696 42.6747 8.37816 43.0002C8.64935 43.3258 9.0134 43.5608 9.4217 43.674L24.4221 47.8407C24.6036 47.8913 24.7912 47.917 24.9796 47.917C25.1676 47.9168 25.3548 47.8915 25.5361 47.8417L40.5772 43.6751C40.9857 43.5617 41.3499 43.3265 41.6212 43.0008C41.8926 42.6751 42.0582 42.2744 42.0959 41.8521L45.2626 6.43547C45.2882 6.14746 45.2536 5.85727 45.161 5.58336C45.0683 5.30945 44.9197 5.05782 44.7245 4.84449ZM38.0737 40.0445L24.9807 43.672L11.9263 40.0455L9.09016 8.33366H40.9098L38.0737 40.0445ZM16.2913 27.0837H30.6559L29.9743 33.8982L24.6246 35.8087L18.0338 33.4547C17.7761 33.3623 17.5026 33.3216 17.2291 33.3349C16.9556 33.3483 16.6874 33.4154 16.4398 33.5325C16.1922 33.6495 15.9702 33.8143 15.7863 34.0172C15.6025 34.2202 15.4604 34.4574 15.3683 34.7153C15.2762 34.9731 15.2358 35.2467 15.2495 35.5202C15.2632 35.7937 15.3306 36.0618 15.448 36.3092C15.5654 36.5566 15.7303 36.7785 15.9335 36.9621C16.1367 37.1457 16.3741 37.2875 16.6321 37.3793L23.9237 39.9834C24.3771 40.1448 24.8722 40.1448 25.3255 39.9834L32.6172 37.3793C32.9885 37.2465 33.3145 37.0112 33.5574 36.7006C33.8003 36.39 33.9501 36.0169 33.9895 35.6245L35.0311 25.2078C35.0599 24.9182 35.0277 24.6258 34.9367 24.3494C34.8456 24.0729 34.6977 23.8186 34.5024 23.6028C34.3071 23.3871 34.0688 23.2145 33.8028 23.0964C33.5368 22.9783 33.249 22.9172 32.958 22.917H18.1763L17.5517 16.667H33.9996C34.5521 16.667 35.082 16.4475 35.4727 16.0568C35.8634 15.6661 36.0829 15.1362 36.0829 14.5837C36.0829 14.0311 35.8634 13.5012 35.4727 13.1105C35.082 12.7198 34.5521 12.5003 33.9996 12.5003H15.2496C14.9585 12.5005 14.6708 12.5616 14.4048 12.6798C14.1388 12.7979 13.9005 12.9704 13.7052 13.1862C13.5099 13.402 13.362 13.6563 13.2709 13.9327C13.1798 14.2091 13.1476 14.5016 13.1764 14.7912L14.2181 25.2078C14.2696 25.7219 14.5103 26.1985 14.8934 26.5451C15.2765 26.8917 15.7747 27.0837 16.2913 27.0837Z" fill="black"/>
</svg>
