<svg width="50" height="50" viewBox="0 0 50 50" fill="none" xmlns="http://www.w3.org/2000/svg">
<path d="M30.1625 31.0063C28.5959 31.159 27.0179 30.8717 25.6057 30.1767C25.2858 29.9207 25.0218 29.6019 24.8299 29.2399C24.6381 28.878 24.5224 28.4805 24.4901 28.0721C24.4895 28.011 24.4767 27.9506 24.4526 27.8945C24.4284 27.8383 24.3934 27.7875 24.3495 27.745C24.3056 27.7025 24.2537 27.6691 24.1968 27.6468C24.1399 27.6245 24.0791 27.6137 24.018 27.615C23.3585 27.607 22.699 27.6087 22.0396 27.6141C21.9243 27.6023 21.8091 27.6365 21.7189 27.7091C21.6286 27.7818 21.5707 27.8871 21.5575 28.0022C21.5199 28.7187 21.6411 29.4347 21.9123 30.099C22.1835 30.7633 22.5981 31.3595 23.1264 31.845C24.4601 32.8857 26.0796 33.4949 27.7686 33.5912C29.5285 33.7953 31.3096 33.7197 33.0459 33.3671C34.3791 33.1185 35.6014 32.4597 36.5422 31.4829C37.0623 30.8417 37.4109 30.0788 37.5552 29.2658C37.6995 28.4529 37.6348 27.6166 37.3672 26.8355C37.1424 26.2849 36.7945 25.7931 36.3502 25.3978C35.9059 25.0025 35.3769 24.7143 34.8039 24.5552C32.1356 23.619 29.2532 23.6898 26.533 22.9783C26.0608 22.8297 25.4837 22.6683 25.2733 22.1683C25.1516 21.8165 25.1433 21.4354 25.2495 21.0786C25.3557 20.7218 25.5711 20.4073 25.8653 20.1792C26.7194 19.6911 27.692 19.449 28.6752 19.4796C30.0097 19.354 31.3549 19.5465 32.6006 20.0413C32.9748 20.2613 33.2966 20.5602 33.5437 20.9172C33.7907 21.2741 33.9572 21.6806 34.0313 22.1083C34.0349 22.2346 34.0855 22.3549 34.1732 22.4457C34.261 22.5365 34.3795 22.5913 34.5055 22.5993C35.1604 22.6126 35.8155 22.6028 36.4703 22.6037C36.5839 22.6173 36.6985 22.5894 36.7932 22.5252C36.8879 22.461 36.9562 22.3648 36.9856 22.2543C36.9914 21.371 36.7663 20.5015 36.3327 19.7319C35.8991 18.9623 35.2719 18.3194 34.5134 17.8668C32.4196 16.9005 30.0957 16.5449 27.8088 16.8409V16.8407C26.1333 16.9094 24.5324 17.5527 23.2751 18.6624C22.698 19.2845 22.3071 20.0562 22.1471 20.8896C21.9871 21.723 22.0644 22.5846 22.3702 23.3762C22.6082 23.9065 22.9584 24.3789 23.3966 24.7607C23.8348 25.1426 24.3506 25.4249 24.9085 25.5882C27.5678 26.5488 30.4825 26.2405 33.1677 27.0899C33.6909 27.2675 34.3003 27.5389 34.4606 28.1213C34.5467 28.4703 34.5402 28.8358 34.4417 29.1816C34.3432 29.5273 34.156 29.8413 33.8988 30.0925C32.7821 30.7862 31.4734 31.1063 30.1625 31.0063ZM42.2852 13.4118C37.093 10.4757 31.8997 7.54226 26.7051 4.61145C26.1839 4.32001 25.5967 4.16699 24.9996 4.16699C24.4024 4.16699 23.8152 4.32001 23.294 4.61145C18.1197 7.5334 12.945 10.4552 7.77014 13.3769C7.26672 13.6513 6.84588 14.0554 6.55127 14.5472C6.25667 15.0391 6.09904 15.6008 6.09473 16.1742V33.8288C6.10301 34.4126 6.26913 34.9832 6.57547 35.4802C6.88181 35.9772 7.31694 36.382 7.83473 36.6518C9.32121 37.4609 10.7654 38.3524 12.2789 39.1077C13.1524 39.5746 14.1226 39.8319 15.1127 39.8591C16.1028 39.8863 17.0856 39.6827 17.9835 39.2645C18.6553 38.8436 19.2019 38.2503 19.5665 37.5464C19.931 36.8424 20.1 36.0536 20.056 35.2621C20.0676 29.4356 20.0578 23.6089 20.0605 17.7824C20.0706 17.7187 20.0672 17.6535 20.0504 17.5913C20.0336 17.529 20.0039 17.4709 19.9631 17.421C19.9223 17.371 19.8715 17.3302 19.8138 17.3012C19.7562 17.2722 19.6931 17.2558 19.6286 17.2529C18.9674 17.2422 18.3052 17.2466 17.644 17.2511C17.5828 17.2456 17.5211 17.2531 17.4629 17.2732C17.4048 17.2932 17.3516 17.3253 17.3067 17.3673C17.2619 17.4093 17.2264 17.4604 17.2027 17.5171C17.1789 17.5738 17.1675 17.6348 17.169 17.6963C17.1601 23.4853 17.1708 29.2761 17.1636 35.066C17.1652 35.4656 17.0444 35.8562 16.8177 36.1853C16.5909 36.5144 16.2689 36.7662 15.8949 36.9071C15.4642 37.0344 15.0115 37.0694 14.5664 37.0098C14.1213 36.9503 13.6937 36.7974 13.3117 36.5614C11.9346 35.7836 10.5575 35.0059 9.18046 34.2283C9.08921 34.185 9.01341 34.1149 8.96326 34.0272C8.9131 33.9396 8.89101 33.8387 8.89996 33.7381C8.89996 27.9133 8.89996 22.0888 8.89996 16.2646C8.89038 16.1513 8.91685 16.0379 8.97559 15.9406C9.03434 15.8432 9.12234 15.7669 9.22704 15.7226C14.3844 12.8179 19.5408 9.91012 24.6962 6.99933C24.7858 6.93818 24.8917 6.90554 25.0001 6.9057C25.1086 6.90586 25.2144 6.93881 25.3038 7.00022C30.461 9.90584 35.6179 12.8125 40.7746 15.7201C40.8788 15.7657 40.9662 15.8427 41.0245 15.9403C41.0828 16.038 41.1092 16.1514 41.0999 16.2647C41.099 22.0884 41.0984 27.9126 41.0981 33.7373C41.1073 33.8383 41.0857 33.9397 41.0363 34.0283C40.9869 34.1168 40.9119 34.1884 40.8212 34.2337C35.7428 37.1053 30.6617 39.9727 25.5779 42.836C25.335 42.9713 25.0475 43.189 24.7635 43.0251C23.432 42.2714 22.1168 41.4885 20.7898 40.7277C20.722 40.6758 20.6402 40.6454 20.555 40.6403C20.4697 40.6352 20.3849 40.6556 20.3113 40.699C19.7268 41.0415 19.1116 41.3286 18.4737 41.5565C18.186 41.673 17.8322 41.7062 17.6342 41.973C17.8865 42.2476 18.1923 42.4677 18.5327 42.6201C20.0846 43.5187 21.6374 44.4165 23.191 45.3135C23.7048 45.6362 24.2958 45.8153 24.9023 45.8321C25.5088 45.849 26.1088 45.703 26.6397 45.4094C31.8149 42.4913 36.9898 39.5719 42.1644 36.6512C42.6818 36.381 43.1166 35.9762 43.423 35.4794C43.7294 34.9826 43.896 34.4124 43.9053 33.8288V16.1742C43.901 15.6122 43.749 15.0612 43.4647 14.5764C43.1804 14.0915 42.7737 13.69 42.2853 13.4118H42.2852Z" fill="black"/>
</svg>
