<svg width="1200" height="630" viewBox="0 0 1200 630" fill="none" xmlns="http://www.w3.org/2000/svg">
<rect width="1200" height="630" fill="white"/>
<path d="M516.476 282.106C517.979 282.106 519.416 282.694 520.788 283.87C522.16 284.981 522.846 286.516 522.846 288.476C522.846 289.064 522.748 289.717 522.552 290.436L503.246 347.276C502.854 348.452 502.135 349.367 501.09 350.02C500.11 350.608 499.065 350.935 497.954 351C496.843 351 495.733 350.673 494.622 350.02C493.577 349.367 492.76 348.419 492.172 347.178L477.668 314.25L478.55 314.838L464.242 347.178C463.654 348.419 462.805 349.367 461.694 350.02C460.649 350.673 459.571 351 458.46 351C457.415 350.935 456.369 350.608 455.324 350.02C454.279 349.367 453.56 348.452 453.168 347.276L433.862 290.436C433.666 289.717 433.568 289.064 433.568 288.476C433.568 286.516 434.254 284.981 435.626 283.87C437.063 282.694 438.533 282.106 440.036 282.106C441.277 282.106 442.421 282.433 443.466 283.086C444.577 283.739 445.328 284.687 445.72 285.928L461.302 333.164L459.146 333.066L473.062 299.648C473.585 298.472 474.336 297.557 475.316 296.904C476.296 296.185 477.407 295.859 478.648 295.924C479.889 295.859 481 296.185 481.98 296.904C482.96 297.557 483.679 298.472 484.136 299.648L496.876 331.596L495.308 332.576L510.694 285.928C511.086 284.687 511.837 283.739 512.948 283.086C514.059 282.433 515.235 282.106 516.476 282.106ZM554.784 297.786L533.616 347.57C533.159 348.811 532.44 349.791 531.46 350.51C530.545 351.163 529.533 351.49 528.422 351.49C526.658 351.49 525.351 351 524.502 350.02C523.653 349.04 523.228 347.831 523.228 346.394C523.228 345.806 523.326 345.185 523.522 344.532L547.924 285.928C548.447 284.621 549.231 283.609 550.276 282.89C551.387 282.171 552.563 281.877 553.804 282.008C554.98 282.008 556.058 282.367 557.038 283.086C558.083 283.739 558.835 284.687 559.292 285.928L583.4 343.356C583.727 344.205 583.89 344.989 583.89 345.708C583.89 347.472 583.302 348.877 582.126 349.922C581.015 350.967 579.774 351.49 578.402 351.49C577.226 351.49 576.148 351.131 575.168 350.412C574.253 349.693 573.535 348.713 573.012 347.472L551.942 298.374L554.784 297.786ZM536.654 335.614L542.044 324.344H568.504L570.366 335.614H536.654ZM631.685 282.106C633.188 282.106 634.527 282.694 635.703 283.87C636.944 284.981 637.565 286.418 637.565 288.182C637.565 288.77 637.467 289.391 637.271 290.044C637.14 290.632 636.879 291.22 636.487 291.808L614.241 323.658L616.005 316.896V345.022C616.005 346.721 615.417 348.158 614.241 349.334C613.13 350.445 611.824 351 610.321 351C608.688 351 607.283 350.445 606.107 349.334C604.996 348.158 604.441 346.721 604.441 345.022V317.68L605.225 320.816L584.057 292.69C583.404 291.841 582.946 291.024 582.685 290.24C582.424 289.456 582.293 288.737 582.293 288.084C582.293 286.32 582.979 284.883 584.351 283.772C585.723 282.661 587.128 282.106 588.565 282.106C590.394 282.106 591.995 283.021 593.367 284.85L612.183 310.82L609.439 310.428L626.785 285.046C628.157 283.086 629.79 282.106 631.685 282.106ZM698.394 282.4C699.962 282.4 701.236 282.923 702.216 283.968C703.196 285.013 703.686 286.32 703.686 287.888V345.022C703.686 346.721 703.098 348.158 701.922 349.334C700.811 350.445 699.407 351 697.708 351C696.859 351 695.977 350.869 695.062 350.608C694.213 350.281 693.559 349.857 693.102 349.334L654.588 300.432L657.136 298.864V345.512C657.136 347.08 656.613 348.387 655.568 349.432C654.588 350.477 653.281 351 651.648 351C650.08 351 648.806 350.477 647.826 349.432C646.846 348.387 646.356 347.08 646.356 345.512V288.378C646.356 286.679 646.911 285.275 648.022 284.164C649.198 282.988 650.635 282.4 652.334 282.4C653.249 282.4 654.196 282.596 655.176 282.988C656.156 283.315 656.875 283.837 657.332 284.556L694.67 332.184L693.004 333.36V287.888C693.004 286.32 693.494 285.013 694.474 283.968C695.454 282.923 696.761 282.4 698.394 282.4ZM724.398 282.4H757.228C758.927 282.4 760.332 282.955 761.442 284.066C762.618 285.111 763.206 286.483 763.206 288.182C763.206 289.815 762.618 291.155 761.442 292.2C760.332 293.18 758.927 293.67 757.228 293.67H729.788L730.67 292.004V311.114L729.886 310.33H752.818C754.517 310.33 755.922 310.885 757.032 311.996C758.208 313.041 758.796 314.413 758.796 316.112C758.796 317.745 758.208 319.085 757.032 320.13C755.922 321.11 754.517 321.6 752.818 321.6H730.18L730.67 320.816V340.612L729.886 339.73H757.228C758.927 339.73 760.332 340.318 761.442 341.494C762.618 342.605 763.206 343.911 763.206 345.414C763.206 347.047 762.618 348.387 761.442 349.432C760.332 350.477 758.927 351 757.228 351H724.398C722.7 351 721.262 350.445 720.086 349.334C718.976 348.158 718.42 346.721 718.42 345.022V288.378C718.42 286.679 718.976 285.275 720.086 284.164C721.262 282.988 722.7 282.4 724.398 282.4Z" fill="black"/>
</svg>
