<svg width="50" height="50" viewBox="0 0 50 50" fill="none" xmlns="http://www.w3.org/2000/svg">
<path d="M14.9167 35.8441H13.4167C13.3611 33.3163 13.2153 30.9378 12.9792 28.7087L10.6979 35.8441H9.54168L7.29168 28.7087C7.12501 30.8406 7.02084 33.2191 6.97918 35.8441H5.58334C5.66668 32.6566 5.88543 29.6774 6.23959 26.8857H8.10418L10.2604 33.4691L12.5 26.8857H14.2813C14.6632 30.1496 14.8924 33.1357 14.9688 35.8441M21.4167 29.2399C21.077 31.7778 20.2568 34.2278 19 36.4587C18.7556 36.9392 18.3932 37.3499 17.9469 37.6523C17.5006 37.9547 16.9848 38.139 16.4479 38.1878C16.1313 38.1734 15.8203 38.0992 15.5313 37.9691V37.167C15.7392 37.1847 15.9483 37.1847 16.1563 37.167C16.5352 37.1811 16.9061 37.055 17.1979 36.8128C17.352 36.6873 17.4753 36.5281 17.5583 36.3476C17.6414 36.167 17.682 35.9698 17.6771 35.7712C17.6039 35.2935 17.4781 34.8254 17.3021 34.3753L15.625 29.2399H17.1042L18.2813 33.0524C18.5004 33.6352 18.6133 34.2526 18.6146 34.8753C19.2811 33.0552 19.7355 31.1642 19.9688 29.2399H21.4167ZM41.3646 35.8441H37.1146V26.8857H38.5417V34.7399H41.3646V35.8441Z" fill="black"/>
<path fill-rule="evenodd" clip-rule="evenodd" d="M36 36.0628L34.375 35.2503C34.5232 35.1283 34.6592 34.9922 34.7813 34.8441C35.5497 33.7907 35.9188 32.4986 35.8229 31.1982C35.8229 28.2399 34.6563 26.7503 32.3333 26.7503C31.8315 26.722 31.3299 26.8096 30.8674 27.0065C30.4049 27.2035 29.994 27.5043 29.6667 27.8857C28.899 28.9355 28.5298 30.2241 28.625 31.5212C28.5254 32.7464 28.853 33.9684 29.5521 34.9795C29.8735 35.3345 30.2708 35.6124 30.7145 35.7928C31.1581 35.9731 31.6367 36.0512 32.1146 36.0212C32.5124 36.0255 32.9088 35.9729 33.2917 35.8649L35.4167 37.0628L36 36.0628ZM30.6667 34.0524C30.2368 33.1803 30.0463 32.2098 30.1146 31.2399C30.1146 28.9795 30.8021 27.8545 32.1979 27.8545C32.5093 27.8333 32.8206 27.8979 33.0978 28.0411C33.3751 28.1843 33.6079 28.4008 33.7708 28.667C34.199 29.5284 34.3896 30.4886 34.3229 31.4482C34.3229 33.7191 33.6354 34.8649 32.2396 34.8649C31.9282 34.8861 31.617 34.8216 31.3397 34.6783C31.0624 34.5351 30.8296 34.3186 30.6667 34.0524Z" fill="black"/>
<path d="M27.9792 33.3331C27.9885 33.6864 27.9184 34.0373 27.7742 34.36C27.63 34.6827 27.4153 34.9689 27.1458 35.1977C26.5163 35.7113 25.7176 35.9714 24.9063 35.9269C23.9939 35.9144 23.1072 35.6237 22.3646 35.0935L22.7396 34.3227C23.3325 34.6458 23.992 34.8276 24.6667 34.8539C25.1175 34.8767 25.5635 34.7524 25.9375 34.4998C26.096 34.3782 26.2225 34.2197 26.306 34.0382C26.3895 33.8567 26.4275 33.6576 26.4167 33.4581C26.4167 32.9269 26.0521 32.4685 25.375 32.0935L23.4896 31.0519C23.1613 30.8564 22.8915 30.5764 22.7083 30.2411C22.525 29.9058 22.4351 29.5275 22.4479 29.1456C22.4349 28.814 22.4965 28.4837 22.6281 28.179C22.7597 27.8743 22.958 27.6031 23.2083 27.3852C23.7585 26.9252 24.4607 26.6874 25.1771 26.7185C25.9815 26.7135 26.7702 26.9414 27.4479 27.3748L27.1042 28.1456C26.5586 27.9077 25.9702 27.7837 25.375 27.781C25.0003 27.7601 24.6305 27.8747 24.3333 28.1039C24.2096 28.2093 24.1101 28.3402 24.0418 28.4876C23.9735 28.6351 23.9379 28.7956 23.9375 28.9581C23.9375 29.4894 24.3125 29.9477 24.9792 30.3331C25.6458 30.7185 26.9063 31.3748 26.9063 31.3748C27.2368 31.5651 27.5087 31.8426 27.6924 32.1769C27.8761 32.5112 27.9645 32.8895 27.9479 33.2706" fill="black"/>
<path fill-rule="evenodd" clip-rule="evenodd" d="M43.1667 23.8855C42.4587 23.8379 41.7486 23.9408 41.0833 24.1876C40.9271 24.2605 40.6667 24.2605 40.6458 24.4584C40.625 24.6564 40.7396 24.6876 40.8125 24.8126C40.9687 25.0564 41.158 25.2772 41.375 25.4689C41.6042 25.6459 41.8333 25.8126 42.0729 25.9689C42.4896 26.2293 42.9688 26.3751 43.3854 26.6355L44.0938 27.1459C44.2188 27.2293 44.2917 27.3751 44.4375 27.4272C44.3646 27.323 44.3438 27.1876 44.2708 27.073C44.1979 26.9584 44.0521 26.8751 43.9479 26.7605C43.623 26.3629 43.2444 26.0123 42.8229 25.7189C42.4688 25.4793 41.7188 25.1459 41.5729 24.7501C41.8284 24.7171 42.0797 24.6577 42.3229 24.573C42.6875 24.4793 43.0208 24.5001 43.3646 24.4064L43.875 24.2501V24.0626C43.6875 23.8647 43.5417 23.6043 43.3438 23.4272C42.7829 22.9358 42.1838 22.49 41.5521 22.0939C41.2188 21.8751 40.7813 21.7397 40.4271 21.5522C40.3021 21.4897 40.0833 21.4584 40.0104 21.3439C39.8287 21.0848 39.6783 20.8051 39.5625 20.5105C39.25 19.9168 38.9479 19.2605 38.6771 18.6251C38.5164 18.2053 38.3321 17.7949 38.125 17.3959C37.1292 15.6951 35.6887 14.2978 33.9583 13.3543C33.5207 13.1386 33.054 12.9877 32.5729 12.9064H31.7604C31.5806 12.7836 31.41 12.6478 31.25 12.5001C30.6354 12.1043 29.0417 11.2605 28.5938 12.3751C28.3021 13.0834 29.0208 13.7709 29.2708 14.1251C29.483 14.3757 29.6681 14.6481 29.8229 14.9376C29.8958 15.1251 29.9271 15.323 30 15.5105C30.1548 16.0086 30.3428 16.4958 30.5625 16.9689C30.6805 17.1991 30.8127 17.4217 30.9583 17.6355C31.0521 17.7501 31.1979 17.8022 31.2292 18.0001C31.115 18.2605 31.0311 18.5331 30.9792 18.8126C30.5987 20.0181 30.711 21.3252 31.2917 22.448C31.4688 22.7189 31.8854 23.3126 32.4375 23.0834C32.9896 22.8543 32.8125 22.2709 32.9479 21.7397C32.9479 21.6043 32.9479 21.5209 33.0313 21.4272C33.1771 21.7293 33.3333 22.0209 33.4688 22.323C33.856 22.8787 34.3309 23.3677 34.875 23.7709C35.1354 23.9689 35.3438 24.3022 35.6667 24.4168C35.6042 24.323 35.5 24.2814 35.4167 24.198C35.21 24.0002 35.0217 23.7841 34.8542 23.5522C34.3957 22.9318 33.9915 22.2731 33.6458 21.5834C33.4688 21.2501 33.3229 20.8751 33.1771 20.5418C33.1146 20.4168 33.1146 20.2189 33 20.1564C32.8043 20.3805 32.6332 20.6249 32.4896 20.8855C32.3127 21.4138 32.211 21.9643 32.1875 22.5209H32.1354C31.7917 22.4376 31.6771 22.0834 31.5417 21.7814C31.2075 20.8498 31.1747 19.8368 31.4479 18.8855C31.5208 18.6668 31.8438 17.948 31.7188 17.7293C31.5938 17.5105 31.4375 17.4064 31.3125 17.2501C31.1639 17.0292 31.035 16.7956 30.9271 16.5522C30.6667 15.948 30.5417 15.2814 30.2604 14.6668C30.0995 14.3767 29.9185 14.0983 29.7188 13.8334C29.4894 13.5757 29.2902 13.2926 29.125 12.9897C29.0625 12.8751 28.9896 12.6772 29.0729 12.5522C29.0823 12.5155 29.102 12.4822 29.1297 12.4564C29.1574 12.4305 29.1919 12.4132 29.2292 12.4064C29.375 12.2918 29.7708 12.4064 29.9063 12.5105C30.2738 12.6489 30.6235 12.8308 30.9479 13.0522C31.1042 13.1564 31.2604 13.3647 31.4583 13.4168H31.6875C32.0313 13.4897 32.4271 13.4168 32.7292 13.5314C33.2758 13.7157 33.7972 13.9676 34.2813 14.2814C35.7128 15.1947 36.8772 16.4705 37.6563 17.9793C37.7917 18.2293 37.8438 18.4584 37.9583 18.7189C38.1875 19.2501 38.4688 19.7605 38.6979 20.3126C38.9025 20.8214 39.1609 21.3068 39.4688 21.7605C39.625 21.9793 40.2813 22.1043 40.5729 22.2189C40.8646 22.3334 41.125 22.4064 41.3125 22.5209C41.6875 22.7501 42.0521 23.0105 42.3542 23.2605C42.5313 23.3959 43.0729 23.6564 43.1042 23.8751" fill="black"/>
<path fill-rule="evenodd" clip-rule="evenodd" d="M32.125 14.4893C31.9775 14.4881 31.8305 14.5056 31.6875 14.5414C31.7903 14.6994 31.9053 14.8491 32.0312 14.9893C32.125 15.156 32.1979 15.3331 32.2812 15.4997C32.3632 15.4371 32.4274 15.3543 32.4676 15.2593C32.5078 15.1643 32.5225 15.0605 32.5104 14.9581C32.4649 14.8874 32.4231 14.8144 32.3854 14.7393C32.3125 14.6247 32.1771 14.5727 32.0833 14.4893" fill="black"/>
<path d="M44.1979 35.8434H44.4167V34.7393H44.0833L43.8125 35.4893L43.5104 34.7393H43.1875V35.8434H43.3958V35.0101L43.7083 35.8434H43.875L44.1875 35.0101L44.1979 35.8434ZM42.3854 35.8434H42.625V34.9268H42.9375V34.7393H42.0625V34.9268H42.3854V35.8434Z" fill="black"/>
</svg>
