<svg width="50" height="50" viewBox="0 0 50 50" fill="none" xmlns="http://www.w3.org/2000/svg">
<path d="M8.28749 25.8799C8.28771 25.8072 8.26876 25.7357 8.23256 25.6726C8.19635 25.6095 8.14416 25.557 8.08124 25.5205L4.65624 23.5502C4.59866 23.5168 4.53373 23.498 4.46718 23.4955H4.43124C4.36473 23.4982 4.29987 23.517 4.24218 23.5502L0.818744 25.5205C0.755538 25.5568 0.703036 25.6092 0.666547 25.6723C0.630057 25.7354 0.610872 25.807 0.610932 25.8799L0.618744 31.1862C0.618509 31.2223 0.627945 31.2579 0.646075 31.2893C0.664205 31.3206 0.690372 31.3465 0.721869 31.3643C0.753117 31.3827 0.788725 31.3924 0.824994 31.3924C0.861264 31.3924 0.896871 31.3827 0.928119 31.3643L2.96249 30.1987C3.0252 30.1619 3.07721 30.1094 3.11339 30.0464C3.14957 29.9834 3.16865 29.912 3.16874 29.8393V27.3596C3.16874 27.2127 3.24687 27.0752 3.37499 27.0018L4.24218 26.5033C4.30547 26.468 4.37674 26.4495 4.44921 26.4495C4.52168 26.4495 4.59295 26.468 4.65624 26.5033L5.52187 27.0018C5.58466 27.038 5.63679 27.0902 5.673 27.153C5.70921 27.2158 5.72822 27.2871 5.72812 27.3596V29.8393C5.72812 29.9877 5.80781 30.1221 5.93593 30.1987L7.97031 31.3643C8.00155 31.3827 8.03716 31.3924 8.07343 31.3924C8.1097 31.3924 8.14531 31.3827 8.17656 31.3643C8.20773 31.3461 8.23364 31.3201 8.25172 31.2889C8.2698 31.2577 8.27944 31.2222 8.27968 31.1862L8.28593 25.8799H8.28749ZM26.5719 18.5846C26.5078 18.5487 26.4297 18.5502 26.3672 18.5877C26.3047 18.6252 26.2656 18.6924 26.2656 18.7658V24.0205C26.2654 24.0459 26.2586 24.0707 26.2458 24.0925C26.233 24.1144 26.2147 24.1326 26.1928 24.1452C26.1708 24.1578 26.146 24.1645 26.1207 24.1646C26.0953 24.1646 26.0704 24.1581 26.0484 24.1455L25.1906 23.6518C25.1276 23.6157 25.0562 23.5968 24.9836 23.5968C24.911 23.5968 24.8396 23.6157 24.7766 23.6518L21.3516 25.6283C21.2886 25.6645 21.2362 25.7166 21.1997 25.7794C21.1633 25.8422 21.144 25.9135 21.1437 25.9862V29.9408C21.1437 30.0893 21.2219 30.2252 21.35 30.2987L24.775 32.2768C24.838 32.3128 24.9094 32.3318 24.982 32.3318C25.0546 32.3318 25.126 32.3128 25.1891 32.2768L28.6156 30.2987C28.6783 30.2623 28.7303 30.2101 28.7665 30.1473C28.8027 30.0845 28.8218 30.0133 28.8219 29.9408V20.083C28.8217 20.0094 28.802 19.9372 28.7646 19.8737C28.7273 19.8103 28.6737 19.7579 28.6094 19.7221L26.5703 18.5846H26.5719ZM26.2547 28.6424C26.2551 28.6606 26.2506 28.6785 26.2415 28.6942C26.2324 28.7099 26.2191 28.7228 26.2031 28.7315L25.0266 29.4096C25.0109 29.4188 24.9931 29.4237 24.975 29.4237C24.9569 29.4237 24.9391 29.4188 24.9234 29.4096L23.7469 28.7315C23.7311 28.7226 23.718 28.7096 23.709 28.694C23.6999 28.6783 23.6952 28.6605 23.6953 28.6424V27.2846C23.6953 27.2471 23.7156 27.2127 23.7469 27.1955L24.9234 26.5158C24.9391 26.5066 24.9569 26.5018 24.975 26.5018C24.9931 26.5018 25.0109 26.5066 25.0266 26.5158L26.2031 27.1955C26.2344 27.2143 26.2547 27.2487 26.2547 27.2846V28.6424ZM38.8281 27.2487C38.8908 27.2123 38.9428 27.1601 38.979 27.0973C39.0152 27.0345 39.0343 26.9633 39.0344 26.8908V25.933C39.0345 25.8605 39.0155 25.7893 38.9792 25.7265C38.943 25.6636 38.8909 25.6115 38.8281 25.5752L35.425 23.5987C35.3622 23.5619 35.2907 23.5425 35.218 23.5425C35.1452 23.5425 35.0737 23.5619 35.0109 23.5987L31.5859 25.5752C31.5231 25.6115 31.471 25.6636 31.4348 25.7265C31.3986 25.7893 31.3796 25.8605 31.3797 25.933V29.8862C31.3797 30.0346 31.4594 30.1721 31.5891 30.2455L34.9922 32.1846C35.1172 32.2565 35.2719 32.2565 35.3984 32.1862L37.4562 31.0424C37.5203 31.0065 37.5609 30.9377 37.5625 30.8627C37.5641 30.7877 37.5234 30.719 37.4594 30.6815L34.0125 28.7034C33.9809 28.6853 33.9546 28.6591 33.9365 28.6275C33.9184 28.5959 33.909 28.5601 33.9094 28.5237V27.2846C33.9094 27.2112 33.9484 27.1424 34.0125 27.1049L35.0859 26.4877C35.1174 26.4701 35.1529 26.4608 35.1891 26.4608C35.2252 26.4608 35.2607 26.4701 35.2922 26.4877L36.3656 27.1049C36.3971 27.1231 36.4233 27.1493 36.4414 27.1809C36.4595 27.2124 36.4689 27.2482 36.4687 27.2846V28.2596C36.4687 28.333 36.5078 28.4018 36.5719 28.4393C36.6359 28.4768 36.7156 28.4752 36.7797 28.4393L38.8297 27.2471L38.8281 27.2487ZM14.5172 23.5783C14.5802 23.5423 14.6516 23.5234 14.7242 23.5234C14.7968 23.5234 14.8682 23.5423 14.9312 23.5783L18.3562 25.5549C18.4191 25.591 18.4714 25.6432 18.5076 25.706C18.5438 25.7689 18.5628 25.8402 18.5625 25.9127V29.869C18.5624 29.9414 18.5434 30.0126 18.5072 30.0754C18.471 30.1382 18.4189 30.1904 18.3562 30.2268L14.9312 32.2049C14.8682 32.2409 14.7968 32.2599 14.7242 32.2599C14.6516 32.2599 14.5802 32.2409 14.5172 32.2049L11.0922 30.2268C11.0294 30.1905 10.9773 30.1384 10.9411 30.0756C10.9048 30.0127 10.8858 29.9415 10.8859 29.869V25.9127C10.8859 25.7643 10.9641 25.6283 11.0922 25.5549L14.5172 23.5783ZM45.4781 32.2612C45.3591 32.2609 45.2423 32.2297 45.1391 32.1705L44.0609 31.533C43.9 31.4424 43.9797 31.4112 44.0312 31.3924C44.2453 31.3174 44.2891 31.3002 44.5187 31.1705C44.5422 31.1565 44.575 31.1627 44.6 31.1768L45.4281 31.669C45.4434 31.6775 45.4606 31.6819 45.4781 31.6819C45.4956 31.6819 45.5128 31.6775 45.5281 31.669L48.7578 29.8049C48.7727 29.7957 48.7851 29.7829 48.7935 29.7675C48.802 29.7522 48.8064 29.7349 48.8062 29.7174V25.9893C48.8062 25.9714 48.8016 25.9538 48.7928 25.9382C48.7841 25.9227 48.7715 25.9096 48.7562 25.9002L45.5281 24.0377C45.5128 24.0292 45.4956 24.0248 45.4781 24.0248C45.4606 24.0248 45.4434 24.0292 45.4281 24.0377L42.2 25.9002C42.1843 25.9093 42.1714 25.9222 42.1623 25.9379C42.1533 25.9535 42.1485 25.9712 42.1484 25.9893V29.7174C42.1484 29.7533 42.1687 29.7862 42.1984 29.8033L43.0828 30.3143C43.5625 30.5549 43.8562 30.2721 43.8562 29.9877V26.308C43.8567 26.2834 43.8667 26.26 43.8843 26.2428C43.9018 26.2255 43.9254 26.2158 43.95 26.2158H44.3594C44.384 26.2158 44.4076 26.2255 44.4251 26.2428C44.4426 26.26 44.4527 26.2834 44.4531 26.308V29.9877C44.4531 30.6283 44.1047 30.9955 43.4969 30.9955C43.3109 30.9955 43.1625 30.9955 42.7531 30.794L41.9062 30.3065C41.8031 30.2466 41.7175 30.1606 41.658 30.0572C41.5985 29.9539 41.5672 29.8367 41.5672 29.7174V25.9893C41.5672 25.7471 41.6969 25.5205 41.9062 25.4002L45.1359 23.5346C45.2399 23.4777 45.3565 23.4479 45.475 23.4479C45.5935 23.4479 45.7101 23.4777 45.8141 23.5346L49.0437 25.4002C49.1469 25.4601 49.2325 25.5461 49.292 25.6494C49.3515 25.7528 49.3828 25.87 49.3828 25.9893V29.7174C49.3826 29.8367 49.3513 29.9538 49.2918 30.0571C49.2323 30.1605 49.1468 30.2464 49.0437 30.3065L45.8141 32.1705C45.7104 32.2301 45.593 32.2614 45.4734 32.2612H45.4781ZM46.4766 29.694C45.0625 29.694 44.7672 29.0455 44.7672 28.5002C44.7672 28.4487 44.8078 28.408 44.8609 28.408H45.2781C45.3005 28.4082 45.322 28.4162 45.3389 28.4309C45.3558 28.4455 45.367 28.4656 45.3703 28.4877C45.4328 28.9127 45.6203 29.1283 46.4766 29.1283C47.1562 29.1283 47.4469 28.9737 47.4469 28.6143C47.4469 28.4065 47.3656 28.2518 46.3078 28.1487C45.425 28.0612 44.8781 27.8658 44.8781 27.1596C44.8781 26.508 45.4281 26.119 46.3484 26.119C47.3828 26.119 47.8953 26.4783 47.9594 27.2487C47.9625 27.2752 47.9531 27.3002 47.9344 27.3205C47.9156 27.3408 47.8922 27.3502 47.8656 27.3502H47.4469C47.4257 27.35 47.4052 27.3427 47.3887 27.3293C47.3723 27.316 47.3608 27.2975 47.3562 27.2768C47.2562 26.8299 47.0109 26.6862 46.3484 26.6862C45.6062 26.6862 45.5187 26.9455 45.5187 27.1393C45.5187 27.3752 45.6203 27.4424 46.6234 27.5752C47.6156 27.7065 48.0875 27.8924 48.0875 28.5893C48.0875 29.2924 47.5016 29.6955 46.4781 29.6955L46.4766 29.694ZM35.1656 27.0643C35.1778 27.0574 35.1915 27.0538 35.2055 27.0538C35.2194 27.0538 35.2331 27.0574 35.2453 27.0643L35.9031 27.444C35.9154 27.4507 35.9257 27.4607 35.9329 27.4728C35.94 27.4849 35.9438 27.4987 35.9437 27.5127V28.2721C35.9438 28.2862 35.94 28.3 35.9329 28.3121C35.9257 28.3242 35.9154 28.3341 35.9031 28.3408L35.2453 28.7205C35.2331 28.7274 35.2194 28.731 35.2055 28.731C35.1915 28.731 35.1778 28.7274 35.1656 28.7205L34.5094 28.3408C34.4973 28.3339 34.4874 28.3239 34.4805 28.3118C34.4736 28.2997 34.4701 28.286 34.4703 28.2721V27.5127C34.4703 27.4846 34.4859 27.458 34.5094 27.444L35.1656 27.0643Z" fill="black"/>
</svg>
