<svg width="50" height="50" viewBox="0 0 50 50" fill="none" xmlns="http://www.w3.org/2000/svg">
<path d="M16.2062 20.4205H10.0078L7.32812 33.9893H10.5109L11.1813 30.4721H14.1969C17.0438 30.6393 20.2281 28.2939 20.2281 24.2736C20.2281 21.9283 18.8875 20.5877 16.2078 20.4205H16.2062ZM13.8609 27.9596H11.85L12.6875 22.9346H14.8656C16.0375 22.9346 16.8766 23.4377 16.8766 24.4424C16.7094 27.2908 15.3688 27.7924 13.8609 27.9596ZM27.4297 20.4205H24.4141L25.0844 16.9033H21.9016L19.2219 30.4721H22.4047L23.9125 22.9346H26.425C27.5984 22.9346 27.5984 23.4377 27.4297 24.2752L26.2578 30.4736H29.6078L30.7797 23.6049C31.1141 21.9299 30.1094 20.5893 27.4297 20.4221V20.4205ZM38.6531 20.4205H32.4547L29.775 33.9893H32.9578L33.6281 30.4721H36.6437C39.4922 30.6393 42.675 28.2939 42.675 24.2736C42.675 21.9283 41.3344 20.5877 38.6547 20.4205H38.6531ZM36.3078 27.9596H34.2969L35.1344 22.9346H37.3125C38.4859 22.9346 39.3234 23.4377 39.3234 24.4424C39.1562 27.2908 37.8156 27.7924 36.3078 27.9596Z" fill="black"/>
</svg>
