<svg width="50" height="50" viewBox="0 0 50 50" fill="none" xmlns="http://www.w3.org/2000/svg">
<g clip-path="url(#clip0_14_305)">
<path d="M39.2813 12.602C39.2063 12.6583 39.1583 12.7458 39.1583 12.8458C39.1583 12.877 39.1625 12.9062 39.1708 12.9333V12.9312C39.2271 13.0437 39.2604 13.1749 39.2604 13.3145C39.2604 13.5249 39.1854 13.7187 39.0583 13.8687L39.0604 13.8666C39.0208 13.9166 38.9979 13.9791 38.9979 14.0479C38.9979 14.1395 39.0417 14.2229 39.1083 14.277C39.1563 14.3145 39.2167 14.3374 39.2833 14.3395C39.3708 14.3395 39.45 14.2979 39.5042 14.2354C39.7104 13.9874 39.8375 13.6666 39.8375 13.3145C39.8375 13.0812 39.7813 12.8645 39.6833 12.6687C39.6313 12.5958 39.5458 12.5479 39.45 12.5479C39.3875 12.5479 39.3292 12.5687 39.2813 12.602Z" fill="black"/>
<path d="M39.6854 12.6704L39.6812 12.6621L39.6833 12.6684L39.6854 12.6704Z" fill="black"/>
<path d="M28.1809 0.20586C14.4892 -1.55039 1.96215 8.12461 0.205896 21.8184C-1.55035 35.51 8.12256 48.035 21.8163 49.7934C35.5101 51.5496 48.0413 41.8746 49.7934 28.1809C51.5517 14.4892 41.8788 1.96419 28.1809 0.20586ZM33.3288 15.7996C32.8455 15.8059 32.4101 16.0038 32.0934 16.3204L22.8163 25.5975L20.8371 23.6184C29.9809 14.5017 31.6309 14.4142 33.3288 15.7996ZM23.1976 25.9267L32.4476 16.6767C32.683 16.4309 33.0142 16.2767 33.383 16.2767C34.0955 16.2767 34.6746 16.8559 34.6746 17.5684C34.6746 17.9642 34.4955 18.3204 34.2142 18.5559L34.2121 18.5579L24.4226 27.1517L23.1976 25.9267ZM23.8851 27.3725L21.5934 27.8684C21.5851 27.8704 21.5746 27.8704 21.5663 27.8704C21.5184 27.8704 21.4746 27.8434 21.4538 27.8017C21.4434 27.7829 21.4371 27.7621 21.4371 27.7392C21.4371 27.7038 21.4517 27.6725 21.4746 27.6496L22.8184 26.3059L23.8851 27.3725ZM18.0455 26.4163L20.4871 23.9746L22.3184 25.8038L18.1955 26.6913C18.183 26.6934 18.1705 26.6954 18.1559 26.6954C18.0955 26.6954 18.0434 26.66 18.0184 26.61C18.0038 26.5871 17.9955 26.56 17.9955 26.5288C17.9955 26.485 18.0142 26.4434 18.0455 26.4163ZM10.4496 39.035C10.3684 39.0288 10.3059 38.9621 10.3059 38.8788C10.3059 38.8725 10.3059 38.8684 10.3059 38.8621C10.3101 38.8246 10.3267 38.7913 10.3517 38.7663H10.3559L12.3267 36.7954L14.8726 39.3413L10.4496 39.035ZM15.5038 36.4204C15.3476 36.5017 15.2455 36.66 15.2455 36.8434C15.2455 36.8829 15.2496 36.9204 15.2601 36.9579V36.9538L15.683 38.7559C15.6871 38.7746 15.6913 38.7954 15.6913 38.8184C15.6913 38.9621 15.5746 39.0788 15.4309 39.0788C15.358 39.0788 15.2913 39.0496 15.2434 38.9996H15.2371L12.6788 36.4392L20.5163 28.61L24.308 27.7913L26.1288 29.6121C23.5142 31.9079 19.9392 34.1975 15.5038 36.4204ZM26.4996 29.2788H26.4955L24.7476 27.5309L34.5371 18.9371C34.6267 18.8559 34.708 18.7704 34.7809 18.6767L34.7851 18.6725C34.4788 21.4746 30.558 25.4329 26.4996 29.2788ZM36.7955 16.9288C35.7496 16.9288 34.8038 16.5059 34.1184 15.8204H34.1205L34.1142 15.8163C33.4309 15.1309 33.008 14.1829 33.008 13.1392C33.008 11.0434 34.708 9.34336 36.8038 9.34336C37.733 9.34336 38.583 9.67669 39.2413 10.2309L39.2351 10.2267L35.8809 13.5871C35.8351 13.6329 35.808 13.6934 35.808 13.7621C35.808 13.8309 35.8351 13.8934 35.8809 13.9371L38.4788 16.535C37.9871 16.7829 37.408 16.9288 36.7955 16.9288ZM39.4913 15.8204C39.3226 15.9871 39.1392 16.135 38.9392 16.2663L38.9267 16.2746H38.9246L36.4101 13.76L39.6038 10.5663C40.9809 12.0663 40.9309 14.3829 39.4913 15.8204Z" fill="black"/>
</g>
<defs>
<clipPath id="clip0_14_305">
<rect width="50" height="50" fill="white"/>
</clipPath>
</defs>
</svg>
