<svg width="50" height="50" viewBox="0 0 50 50" fill="none" xmlns="http://www.w3.org/2000/svg">
<path d="M23.1312 21.746C22.4939 22.114 21.9801 22.6626 21.6546 23.3226C21.3291 23.9826 21.2066 24.7243 21.3027 25.4539C21.3988 26.1835 21.709 26.8682 22.1942 27.4215C22.6795 27.9748 23.3178 28.3717 24.0287 28.5622C24.7395 28.7526 25.4908 28.728 26.1876 28.4914C26.8845 28.2549 27.4955 27.817 27.9435 27.2331C28.3914 26.6493 28.6562 25.9457 28.7043 25.2114C28.7524 24.4771 28.5817 23.745 28.2137 23.1077C27.7202 22.2532 26.9076 21.6297 25.9544 21.3744C25.0013 21.119 23.9858 21.2527 23.1312 21.746ZM39.8077 25.7828C39.5634 25.5037 39.3057 25.2238 39.0344 24.9431C39.2239 24.744 39.4072 24.545 39.5844 24.3462C42.9299 20.5873 44.3419 16.8177 43.0336 14.5514C41.779 12.3785 38.0473 11.7309 33.3754 12.6393C32.9152 12.7293 32.4576 12.8309 32.0025 12.944C31.9154 12.6436 31.8227 12.345 31.7245 12.0481C30.1396 7.27203 27.5794 4.16535 24.9626 4.16699C22.4534 4.16814 20.0283 7.0776 18.4812 11.5785C18.329 12.0225 18.1882 12.4702 18.0588 12.9216C17.7545 12.8469 17.449 12.778 17.1422 12.7147C12.213 11.7027 8.24284 12.3692 6.93707 14.6368C5.68498 16.8113 6.99442 20.3656 10.1215 23.9537C10.4316 24.3087 10.7505 24.6558 11.0782 24.9949C10.6919 25.3928 10.3261 25.7905 9.98515 26.1859C6.9339 29.7234 5.69934 33.2196 6.9494 35.3847C8.24042 37.6211 12.1547 38.3521 16.919 37.4146C17.3051 37.3381 17.6891 37.252 18.0709 37.1563C18.2108 37.6446 18.3642 38.1286 18.5312 38.6084C20.0715 43.0189 22.483 45.8347 24.9833 45.8338C27.5655 45.8323 30.154 42.8069 31.7223 38.2114C31.8462 37.8482 31.9634 37.4711 32.0746 37.0827C32.5678 37.2055 33.0642 37.3143 33.5638 37.4094C38.1542 38.2779 41.7982 37.5948 43.046 35.4282C44.3345 33.1901 43.006 29.4364 39.8076 25.7828H39.8077ZM8.47955 15.525C9.28342 14.1292 12.528 13.5846 16.7839 14.4583C17.0559 14.5143 17.3325 14.5768 17.6138 14.6458C17.1983 16.4839 16.9051 18.3475 16.7362 20.2243C15.2006 21.3046 13.7365 22.4832 12.3531 23.7526C12.0483 23.4374 11.7517 23.1146 11.4632 22.7841L11.4633 22.7842C8.78396 19.7098 7.72498 16.8353 8.47955 15.525ZM16.5768 27.4585C15.5131 26.6531 14.5246 25.828 13.6274 24.9981C14.5239 24.1734 15.5131 23.351 16.5746 22.5478C16.5365 23.366 16.5175 24.1849 16.5179 25.0044C16.5185 25.8228 16.5381 26.6408 16.5768 27.4585ZM16.5755 35.6681C14.7698 36.0696 12.9056 36.1354 11.0761 35.8622C10.5746 35.8231 10.0864 35.6816 9.64168 35.4464C9.19699 35.2113 8.80525 34.8874 8.49067 34.4948C7.73219 33.1809 8.72351 30.374 11.333 27.3485C11.6611 26.9694 11.9999 26.6001 12.3495 26.2407C13.7331 27.5168 15.1996 28.7 16.7393 29.7826C16.9106 31.6834 17.2072 33.5708 17.6273 35.4326C17.2787 35.5197 16.9281 35.5982 16.5755 35.6681ZM31.3695 18.9194C30.6708 18.4792 29.9634 18.053 29.2474 17.641C28.5428 17.2355 27.8298 16.8451 27.1082 16.47C28.3437 15.9506 29.558 15.507 30.7304 15.1454C31.0068 16.3919 31.2201 17.6515 31.3695 18.9194ZM20.1646 12.157C21.49 8.30047 23.4513 5.94758 24.9636 5.94693C26.5742 5.94616 28.6668 8.48497 30.0351 12.6087C30.124 12.8775 30.208 13.1478 30.2872 13.4197C28.4895 13.9772 26.7307 14.6531 25.0223 15.443C23.3209 14.6439 21.5677 13.9604 19.7743 13.3973C19.8942 12.9807 20.0243 12.5673 20.1646 12.157ZM19.3305 15.1232C20.5533 15.5082 21.756 15.9546 22.9339 16.4607C21.4744 17.2139 20.0527 18.0344 18.6686 18.922C18.8358 17.5928 19.0583 16.3193 19.3305 15.1232ZM18.6717 31.083C19.3619 31.5248 20.0622 31.9503 20.7725 32.3595C21.4972 32.7767 22.2315 33.1764 22.9754 33.5586C21.7885 34.0822 20.5755 34.5446 19.3411 34.9438C19.0658 33.7312 18.8409 32.4353 18.6717 31.083ZM30.0377 37.6361C29.4834 39.401 28.6091 41.0488 27.4583 42.4971L27.4582 42.4972C27.1738 42.9121 26.8074 43.2642 26.3815 43.5319C25.9557 43.7996 25.4795 43.9771 24.9823 44.0534C23.4652 44.0543 21.5289 41.793 20.2117 38.0213C20.0565 37.5753 19.9138 37.1253 19.7835 36.6713C21.5854 36.09 23.3458 35.3872 25.0527 34.5677C26.7751 35.3627 28.5479 36.0437 30.3597 36.6063C30.2607 36.9521 30.1534 37.2954 30.0377 37.6361ZM30.7923 34.8773C29.6065 34.5107 28.3745 34.0596 27.1212 33.5325C27.8277 33.1607 28.5393 32.7681 29.256 32.3546C29.9915 31.9298 30.7083 31.4945 31.4063 31.0485C31.2672 32.3345 31.0623 33.6125 30.7923 34.8774V34.8773ZM31.7221 24.9968C31.7237 26.262 31.6842 27.5262 31.6036 28.7893C30.5772 29.484 29.4936 30.1623 28.3661 30.8132C27.2433 31.4614 26.1308 32.0571 25.0396 32.5963C23.8912 32.0459 22.765 31.4529 21.6609 30.8171C20.563 30.1852 19.4903 29.5123 18.4428 28.7984C18.3471 27.5356 18.2988 26.2705 18.2981 25.0031L18.2984 25.0035C18.2975 23.737 18.3447 22.4719 18.4399 21.208C19.466 20.5072 20.5418 19.8295 21.654 19.1874C22.7714 18.5422 23.8978 17.949 25.018 17.4114C26.1522 17.9626 27.2659 18.5533 28.3593 19.1836C29.4564 19.8141 30.5321 20.4799 31.5863 21.1808C31.6769 22.4508 31.7222 23.7228 31.7223 24.9968H31.7221ZM33.7153 14.3867C37.7181 13.6081 40.7361 14.1319 41.4922 15.4413C42.2976 16.8364 41.1433 19.9174 38.2551 23.1629L38.2549 23.163C38.0953 23.3421 37.9298 23.5219 37.7582 23.7024C36.3509 22.4303 34.8586 21.2554 33.2917 20.1861C33.1335 18.3297 32.8513 16.4861 32.4469 14.6675C32.8779 14.5614 33.3007 14.4678 33.7153 14.3867ZM33.4447 22.4798C34.5017 23.2515 35.5179 24.0775 36.4892 24.9545C35.5221 25.8459 34.5092 26.6861 33.4544 27.4718C33.4867 26.6469 33.5026 25.8216 33.502 24.9959C33.5017 24.157 33.4826 23.3183 33.4447 22.4798ZM41.5033 34.5397C40.746 35.8547 37.8202 36.403 33.8945 35.6602C33.4446 35.5753 32.983 35.4742 32.5096 35.357C32.9042 33.5149 33.1739 31.6484 33.3168 29.77C34.8811 28.6819 36.3687 27.4875 37.769 26.1952C38.0141 26.4498 38.2472 26.7032 38.4683 26.9554V26.9552C39.7205 28.3168 40.7114 29.8972 41.3914 31.6176C41.6088 32.0711 41.7309 32.5644 41.7502 33.0671C41.7694 33.5697 41.6854 34.0709 41.5033 34.5397Z" fill="black"/>
</svg>
