<svg width="50" height="38" viewBox="0 0 50 38" fill="none" xmlns="http://www.w3.org/2000/svg">
<g clip-path="url(#clip0_14_350)">
<path d="M43.0203 21.5563C43.0813 21.5547 43.1531 21.5531 43.2266 21.5531C44.5297 21.5531 45.7625 21.8563 46.8563 22.3969L46.8078 22.375C47.8047 22.8609 48.6234 23.5797 49.2156 24.4609L49.2297 24.4828C49.6969 25.1641 49.975 26.0063 49.975 26.9125C49.975 26.9781 49.9734 27.0438 49.9703 27.1078V27.0984C49.9219 28.0031 49.5109 28.8016 48.8797 29.3609L48.8766 29.3641C48.5312 29.7031 48.1141 29.9688 47.65 30.1375L47.6266 30.1453C47.3661 30.1974 47.2229 30.1583 47.1969 30.0281C47.1708 29.8979 47.288 29.7547 47.5484 29.5984C48.2547 29.1703 48.7656 28.4797 48.9516 27.6656L48.9563 27.6453C48.9609 27.5797 48.9641 27.5031 48.9641 27.425C48.9641 26.9391 48.8484 26.4797 48.6438 26.0734L48.6516 26.0906C48.3125 25.3828 47.8063 24.8016 47.1828 24.3813L47.1672 24.3719C46.2344 23.7719 45.1156 23.3781 43.9125 23.2797L43.8875 23.2781C43.4781 23.2172 43.0063 23.1828 42.525 23.1828C41.2734 23.1828 40.0781 23.4188 38.9781 23.8484L39.0438 23.825C39.2703 24.3547 39.4125 24.9688 39.4328 25.6125V25.6203C39.4078 26.9406 38.6984 28.0891 37.6437 28.7297L37.6266 28.7391C37.1422 29.0828 36.5891 29.3844 36 29.6188L35.9453 29.6375C35.5875 29.8125 35.1672 29.9141 34.7234 29.9141C34.6719 29.9141 34.6219 29.9125 34.5719 29.9094H34.5797C33.5911 29.7021 33.3568 28.8427 33.8766 27.3313C34.1031 26.6734 34.4203 26.1031 34.8219 25.6016L34.8125 25.6125C35.3266 24.9406 35.8906 24.3516 36.5141 23.8297L36.5312 23.8156L36.3781 23.5875C36.0922 23.1 35.8297 22.5328 35.6188 21.9406L35.5969 21.8688C35.4406 21.3479 35.3104 20.8536 35.2063 20.3859L35.1281 19.8391L34.3469 21.3219C33.6698 22.5719 33.0188 23.6651 32.3938 24.6016L32.1594 24.9922C32.4219 25.6297 32.6156 26.3688 32.7031 27.1406L32.7063 27.1797C32.7125 27.2531 32.7156 27.3406 32.7156 27.4281C32.7156 28.6125 32.1313 29.6594 31.2344 30.2984L31.2234 30.3063C30.7953 30.5703 30.2844 30.8438 29.7547 31.0875L29.6609 31.1266C29.1094 31.3656 28.4703 31.5219 27.8 31.5563H27.7859C27.7344 31.5594 27.6734 31.5625 27.6125 31.5625C27.2219 31.5625 26.8516 31.4734 26.5203 31.3156L26.5359 31.3219C26.3375 31.1516 26.2125 30.9016 26.2125 30.6219C26.2125 30.4797 26.2453 30.3438 26.3031 30.2234L26.3 30.2297C26.925 29.3531 27.5406 28.5906 28.1953 27.8625L28.175 27.8859L29.8938 25.7L29.5828 24.9969C29.3328 24.5375 29.0938 23.9953 28.9016 23.4328L28.8797 23.3578C28.7234 22.837 28.5932 22.3427 28.4891 21.875L28.4109 21.3281L27.6297 23.2031C27.0057 24.6604 26.4328 25.9099 25.9109 26.9516C25.1328 28.5141 24.4818 29.712 23.9578 30.5453L23.8016 30.7797C23.1776 31.7682 22.5787 32.2625 22.0047 32.2625C21.4307 32.2625 21.0417 31.8979 20.8375 31.1688C20.6875 30.6313 20.6 30.0141 20.6 29.3766C20.6 29.3203 20.6 29.2641 20.6016 29.2078V29.2156L20.7578 28.1219V28.2C20.3412 29.1885 19.9245 30.0995 19.5078 30.9328C19.2313 31.4734 18.9469 31.9344 18.6281 32.3688L18.6484 32.3391C18.3266 32.6766 17.8734 32.8859 17.3719 32.8859C17.3672 32.8859 17.3641 32.8859 17.3594 32.8859C17.3266 32.8891 17.2891 32.8891 17.2516 32.8891C16.8563 32.8891 16.4969 32.7391 16.225 32.4938L16.2266 32.4953C15.6813 31.9359 15.2766 31.2375 15.0672 30.4578L15.0594 30.425C14.8031 29.7141 14.6563 28.8922 14.6563 28.0359C14.6563 27.925 14.6594 27.8156 14.6641 27.7078V27.7234C14.7875 26.4797 15.0359 25.3406 15.4 24.2547L15.3672 24.3656L12.5563 26.0063V26.0844C12.9641 26.9313 13.2031 27.925 13.2031 28.975C13.2031 29.1672 13.1953 29.3578 13.1797 29.5453L13.1813 29.5203C13.0984 31.1297 12.5844 32.6031 11.7547 33.8484L11.775 33.8172C10.9047 35.1984 9.65001 36.2656 8.15938 36.8828L8.10782 36.9016C7.26876 37.2781 6.28751 37.4984 5.25626 37.4984C4.60313 37.4984 3.96876 37.4109 3.36876 37.2453L3.41876 37.2563C2.92188 37.0891 2.51563 36.7578 2.25782 36.3297L2.25313 36.3203C1.88907 35.7922 1.65938 35.1469 1.62344 34.4516V34.4422C1.60626 34.2844 1.59688 34.1016 1.59688 33.9156C1.59688 33.1141 1.77969 32.3547 2.10626 31.6781L2.09219 31.7094C2.98907 30.1797 4.22969 28.9406 5.71094 28.0688L5.75782 28.0438C6.80626 27.3172 8.01094 26.6125 9.26876 25.9984L9.43438 25.925L9.82501 25.6906C9.35626 25.326 8.49688 24.701 7.24688 23.8156C5.57657 22.6969 4.12501 21.5672 2.75626 20.3453L2.79532 20.3797C1.47188 19.2406 0.507819 17.7188 0.0750061 15.9859L0.0625061 15.9266C0.0218811 15.6859 -0.0015564 15.4094 -0.0015564 15.1281C-0.0015564 14.2469 0.225006 13.4188 0.621881 12.6984L0.609381 12.725C1.48438 10.8438 2.69688 9.25781 4.18438 7.98281L4.20313 7.96719C5.81251 6.44688 7.63438 5.12344 9.6125 4.05156L9.74844 3.98438C11.5156 2.96406 13.5797 2.01562 15.7313 1.25469L15.9969 1.17344C17.9953 0.442188 20.3031 0.0140625 22.7094 0.00625H22.7125C22.8219 0.003125 22.9516 0 23.0813 0C25.0203 0 26.8547 0.448438 28.4859 1.24688L28.4141 1.21406C29.8203 1.85469 30.8734 3.06094 31.2953 4.53594L31.3047 4.57344C31.4344 5.07656 31.5078 5.65469 31.5078 6.25C31.5078 7.2375 31.3031 8.17813 30.9359 9.03125L30.9531 8.98594C30.2844 10.6063 29.3328 11.9859 28.1453 13.1219L28.1406 13.1266C26.9375 14.3188 25.4953 15.2719 23.8938 15.9078L23.8078 15.9375C22.1297 16.6578 20.1813 17.1109 18.1359 17.1859L18.1063 17.1875C17.8063 17.2219 17.4594 17.2406 17.1078 17.2406C16.1828 17.2406 15.2906 17.1078 14.4469 16.8594L14.5141 16.8766C13.7594 16.6359 13.1078 16.2625 12.5547 15.7781L12.5609 15.7828C12.1734 15.4672 11.8578 15.0781 11.6328 14.6359L11.6234 14.6156C11.4672 14.199 11.4542 13.9516 11.5844 13.8734C11.7146 13.7953 11.8057 13.7823 11.8578 13.8344L12.2484 14.225C12.6844 14.6297 13.2047 14.9484 13.7797 15.1516L13.8109 15.1609C14.6016 15.4359 15.5141 15.5953 16.4625 15.5953C16.7672 15.5953 17.0672 15.5797 17.3625 15.5469L17.3266 15.55C19.8547 15.2516 22.1344 14.3891 24.1016 13.0922L24.0438 13.1281C25.7063 12.1391 27.0516 10.7797 27.9984 9.15938L28.0266 9.10625C28.4969 8.41563 28.7781 7.5625 28.7781 6.64375C28.7781 6.07969 28.6719 5.53906 28.4781 5.04219L28.4891 5.07188C27.9047 4.14844 26.9594 3.49844 25.8563 3.31875L25.8344 3.31563C24.9781 3.10469 23.9938 2.98281 22.9828 2.98281C22.1688 2.98281 21.3719 3.06094 20.6016 3.21094L20.6797 3.19844C18.0438 3.67344 15.6875 4.4875 13.5141 5.60625L13.6563 5.53906C7.25209 8.76823 3.94532 12.075 3.73594 15.4594V15.5359C3.73594 16.9 4.27188 18.1391 5.14532 19.0547L5.14376 19.0531C6.13907 20.1594 7.23907 21.1359 8.44063 21.9797L8.50157 22.0203C9.59688 22.8391 10.5656 23.6844 11.4672 24.5969L11.4688 24.6L11.625 24.7563L16.625 22.0234C17.1953 21.1984 17.8813 20.5016 18.6688 19.9391L18.6938 19.9219C19.3188 19.3969 20.1125 19.0547 20.9828 18.9859L20.9969 18.9844C21.0281 18.9813 21.0641 18.9813 21.1016 18.9813C21.6844 18.9813 22.1844 19.3328 22.4 19.8359L22.4031 19.8453C22.5672 20.2125 22.6625 20.6422 22.6625 21.0938C22.6625 21.2313 22.6531 21.3672 22.6359 21.5016L22.6375 21.4859L22.4859 22.2563L22.7203 22.1C22.8828 21.9766 23.0875 21.9031 23.3094 21.9031C23.45 21.9031 23.5828 21.9328 23.7031 21.9859L23.6969 21.9828C23.9969 22.0609 24.2141 22.3297 24.2141 22.6484C24.2141 22.7031 24.2078 22.7563 24.1953 22.8078L24.1969 22.8031L23.9625 23.6625C23.4938 25.5365 23.1818 26.8901 23.0266 27.7234C22.9484 27.9938 22.9047 28.3047 22.9047 28.6266C22.9047 28.6938 22.9063 28.7594 22.9109 28.825V28.8156C22.937 29.1281 22.976 29.2844 23.0281 29.2844C23.0802 29.2844 23.1839 29.1281 23.3391 28.8156L23.5734 28.2688C23.6255 28.2688 23.6255 28.2948 23.5734 28.3469L24.4328 26.55C26.4641 22.0729 27.5573 19.5729 27.7125 19.05L28.1813 17.5672C28.2333 17.463 28.4417 17.3594 28.8063 17.2563C29.1766 17.1562 29.6 17.0984 30.0375 17.0984C30.0734 17.0984 30.1094 17.0984 30.1438 17.1H30.1391C30.8682 17.1 31.2328 17.2823 31.2328 17.6469L31.1547 18.0375C30.9797 18.5188 30.8063 19.1203 30.6719 19.7359L30.6547 19.8344C30.6234 20.0359 30.6047 20.2672 30.6047 20.5047C30.6047 20.8203 30.6359 21.1281 30.6969 21.4266L30.6922 21.3969L30.7703 21.7078C30.9297 22.3594 31.1719 22.9313 31.4891 23.4531L31.4734 23.4266C32.0974 22.3859 32.6964 21.3188 33.2703 20.225C33.7234 19.4703 34.1453 18.5953 34.4844 17.6797L34.5203 17.5703C34.6375 16.9813 34.7719 16.4844 34.9359 16L34.9109 16.0875C34.963 15.9313 35.1854 15.8141 35.5781 15.7359C35.95 15.6609 36.3766 15.6188 36.8125 15.6188H36.8688H36.8656C37.5948 15.6188 37.9839 15.801 38.0328 16.1656L37.8766 16.4766C37.6906 17.0016 37.5281 17.6328 37.4188 18.2813L37.4094 18.3516C37.3953 18.5031 37.3859 18.6781 37.3859 18.8563C37.3859 19.2297 37.4234 19.5953 37.4938 19.9484L37.4875 19.9125V20.2234C37.6672 20.9047 37.9344 21.5031 38.2844 22.0453L38.2688 22.0203L38.5031 22.5672C39.8078 21.9266 41.3422 21.5516 42.9641 21.5516H43.025H43.0219L43.0203 21.5563ZM9.52188 32.8891C10.6078 31.7672 11.2781 30.2359 11.2781 28.5484C11.2781 27.8969 11.1781 27.2688 10.9938 26.6781L11.0063 26.7219L9.75626 27.5031C8.48126 28.2297 7.37813 29.0406 6.37969 29.9625L6.39219 29.9516C5.63438 30.6484 5.07501 31.55 4.80001 32.5672L4.79063 32.6063C4.55626 33.5698 4.67344 34.1948 5.14219 34.4813C5.42813 34.6125 5.76407 34.6891 6.11563 34.6891C6.50001 34.6891 6.86407 34.5984 7.18438 34.4359L7.17032 34.4422C8.09844 34.1047 8.88438 33.5688 9.50938 32.8828L9.51407 32.8781L9.52188 32.8891ZM19.9859 25.6953C20.2464 25.0182 20.5328 24.2109 20.8453 23.2734C21.262 22.0234 21.4052 21.2948 21.275 21.0875C21.1448 20.8802 20.8974 20.8542 20.5328 21.0094C20.0984 21.2203 19.7344 21.5094 19.4438 21.8641L19.4391 21.8703C19.1141 22.2813 18.8047 22.7406 18.5297 23.2234L18.5016 23.2766C18.1859 23.7938 17.9188 24.3891 17.7328 25.0203L17.7188 25.0734C17.4172 25.8906 17.2422 26.8359 17.2422 27.8203C17.2422 27.9531 17.2453 28.0844 17.2516 28.2156V28.1969C17.3037 29.2375 17.4703 29.7974 17.7516 29.8766C18.0328 29.9557 18.3583 29.5781 18.7281 28.7438C19.0859 28.0984 19.4047 27.3484 19.6422 26.5625L19.6641 26.4781C19.8193 26.1094 19.9255 25.8484 19.9828 25.6953H19.9859ZM28.6516 29.8359C29.7344 29.35 30.4969 28.3266 30.6031 27.1156L30.6047 27.1031V27.025L29.7453 28.1188L28.1844 29.8375C28.1609 29.8563 28.1453 29.8844 28.1453 29.9156C28.1453 29.9469 28.1609 29.975 28.1828 29.9938C28.2328 30.0448 28.3891 29.9927 28.6516 29.8375V29.8359ZM35.3688 28.3516C36.55 28.0141 37.4 26.9438 37.4 25.6766C37.4 25.6563 37.4 25.6359 37.4 25.6156V25.6188C37.3844 25.3063 37.3281 25.0125 37.2359 24.7344L37.2422 24.7578C36.6344 25.2984 36.1359 25.9453 35.775 26.675L35.7578 26.7109C35.288 27.6474 35.1568 28.1932 35.3641 28.3484L35.3688 28.3516Z" fill="black"/>
</g>
<defs>
<clipPath id="clip0_14_350">
<rect width="50" height="37.5" fill="white"/>
</clipPath>
</defs>
</svg>
