<svg width="50" height="50" viewBox="0 0 50 50" fill="none" xmlns="http://www.w3.org/2000/svg">
<path d="M38.5417 19.8127C36.9793 19.2746 35.6002 18.307 34.5625 17.021C33.4189 15.5882 31.9626 14.4359 30.3052 13.6523C28.6478 12.8687 26.8331 12.4746 25 12.5002C22.5341 12.3255 20.0929 13.0861 18.1625 14.6304C16.2321 16.1747 14.9543 18.3894 14.5833 20.8335C15.3139 19.6111 16.4135 18.652 17.7237 18.0942C19.034 17.5364 20.4875 17.4086 21.875 17.7293C23.4348 18.2831 24.8116 19.2563 25.8542 20.5418C27.0041 21.9632 28.4631 23.1036 30.1202 23.8762C31.7772 24.6488 33.5887 25.0332 35.4167 25.0002C37.8826 25.1748 40.3238 24.4142 42.2542 22.8699C44.1845 21.3257 45.4624 19.1109 45.8333 16.6668C45.116 17.9039 44.02 18.8775 42.707 19.4439C41.3941 20.0104 39.9337 20.1397 38.5417 19.8127ZM11.4583 30.1877C13.0207 30.7258 14.3998 31.6933 15.4375 32.9793C16.5812 34.4122 18.0374 35.5645 19.6948 36.348C21.3522 37.1316 23.1669 37.5257 25 37.5002C27.4659 37.6748 29.9071 36.9142 31.8375 35.3699C33.7679 33.8256 35.0458 31.6109 35.4167 29.1668C34.6861 30.3892 33.5866 31.3484 32.2763 31.9062C30.966 32.464 29.5125 32.5917 28.125 32.271C26.5652 31.7172 25.1884 30.7441 24.1458 29.4585C22.9928 28.0406 21.5332 26.9027 19.8769 26.1305C18.2206 25.3583 16.4106 24.9718 14.5833 25.0002C12.1174 24.8255 9.67622 25.5861 7.74585 27.1304C5.81548 28.6747 4.53759 30.8894 4.16667 33.3335C4.88398 32.0965 5.98002 31.1229 7.29299 30.5564C8.60596 29.99 10.0663 29.8607 11.4583 30.1877Z" fill="black"/>
</svg>
