<svg width="50" height="50" viewBox="0 0 50 50" fill="none" xmlns="http://www.w3.org/2000/svg">
<g clip-path="url(#clip0_14_332)">
<path d="M48.9583 50H1.04167C0.765399 50 0.500448 49.8903 0.305097 49.6949C0.109747 49.4995 0 49.2346 0 48.9583V1.04167C0 0.765399 0.109747 0.500448 0.305097 0.305097C0.500448 0.109747 0.765399 0 1.04167 0L48.9583 0C49.2346 0 49.4995 0.109747 49.6949 0.305097C49.8903 0.500448 50 0.765399 50 1.04167V48.9583C50 49.2346 49.8903 49.4995 49.6949 49.6949C49.4995 49.8903 49.2346 50 48.9583 50ZM2.08333 47.9167H47.9167V2.08333H2.08333V47.9167ZM37.8438 46.0708C37.0993 46.0802 36.3552 46.03 35.6187 45.9208C33.4729 45.5354 31.4292 44.4646 30.1542 43.0521C28.2125 40.9083 28.6333 40.2208 28.7917 39.9625C28.9521 39.7187 29.1312 39.5917 29.6 39.3229L29.6062 39.3187C29.8208 39.1979 30.6208 38.7354 31.3771 38.2958L32.7562 37.4979C32.9839 37.3651 33.2536 37.3239 33.5105 37.3827C33.7675 37.4416 33.9924 37.596 34.1396 37.8146L34.4292 38.2417C34.7667 38.7542 35.5229 39.4604 35.8687 39.6437C37.0875 40.2875 38.7104 40.1271 39.35 39.5562C39.4371 39.4882 39.5077 39.4013 39.5564 39.3021C39.6051 39.2029 39.6307 39.0939 39.6312 38.9833C39.6292 38.5208 39.6083 38.4937 39.4542 38.2687C39.2292 37.9458 38.4292 37.5083 36.6042 36.7146C34.0167 35.6 32.8354 34.8646 31.7458 33.6917C31.0384 32.8934 30.513 31.9508 30.2062 30.9292C29.9604 30.0187 29.9104 28.1667 30.0896 27.3187C30.6833 24.5333 32.8271 22.5312 35.8271 21.9625C36.8167 21.775 38.9146 21.8333 39.9062 22.0812C41.243 22.3989 42.4579 23.0998 43.4021 24.0979C43.4229 24.1229 44.6458 25.4437 44.8104 26.1062C45.0083 26.8479 45.0458 26.9854 41.0208 29.4854C40.4229 29.8854 39.7917 29.6312 39.1729 28.7104C38.6875 28.0062 38.3 27.8562 37.7125 27.8146C37.2479 27.7792 36.875 27.8708 36.6687 28.0667C36.5208 28.2062 36.4458 28.4187 36.4479 28.7C36.4391 28.8295 36.4605 28.9593 36.5104 29.0792L36.5479 29.15C36.7042 29.475 37.0958 29.775 38.8 30.5104C42.4396 32.0771 44.0229 33.1417 45.0667 34.725C46.2729 36.5542 46.5437 39.3437 45.7271 41.5083C44.8292 43.8687 42.6625 45.45 39.625 45.9625C39.0348 46.0434 38.4394 46.0796 37.8438 46.0708ZM31.0938 40.8667C31.3021 41.1625 31.5354 41.475 31.6979 41.6542C32.675 42.7375 34.2771 43.5646 35.9854 43.8687C36.7646 44.0083 38.5729 44.0292 39.2729 43.9062C41.5583 43.5187 43.1562 42.4062 43.7812 40.7667C44.3583 39.2396 44.1646 37.1333 43.3292 35.8687C42.5417 34.6729 41.1896 33.8021 37.975 32.4187C36.1 31.6062 35.2146 31.1 34.7125 30.1292L34.6979 30.1C34.4793 29.6926 34.3648 29.2374 34.3646 28.775C34.3625 27.8354 34.6667 27.0854 35.2458 26.5417C35.8896 25.9375 36.7938 25.65 37.8604 25.7292C39.0479 25.8125 39.9292 26.2812 40.6792 27.2333C41.2937 26.8375 41.9229 26.4167 42.3875 26.1C42.2312 25.9046 42.0679 25.7149 41.8979 25.5312C41.2298 24.816 40.3626 24.3175 39.4083 24.1C38.7229 23.9271 36.9083 23.8771 36.2188 24.0042C34.0396 24.4187 32.5479 25.7833 32.1312 27.7458C32.0229 28.2625 32.0646 29.8021 32.2021 30.3167C32.4208 31.0521 32.7979 31.7292 33.2937 32.2896C34.15 33.2104 35.1208 33.8021 37.4333 34.7979C39.8542 35.85 40.6542 36.3396 41.1687 37.0771C41.5833 37.6792 41.7146 38.1187 41.7146 38.8896C41.7167 39.8062 41.3542 40.5875 40.7208 41.1229C39.3812 42.3271 36.8125 42.4938 34.9 41.4833C34.3229 41.1792 33.5167 40.4542 32.9771 39.775L32.425 40.0938L31.0938 40.8667ZM22.1854 45.8167H17.7729C17.4966 45.8167 17.2317 45.7069 17.0363 45.5116C16.841 45.3162 16.7312 45.0513 16.7312 44.775V28.0958H11.5396C11.2633 28.0958 10.9984 27.9861 10.803 27.7907C10.6077 27.5954 10.4979 27.3304 10.4979 27.0542V25.1292C10.4979 23.0125 10.4979 22.675 10.8938 22.3708C10.919 22.3474 10.947 22.3271 10.9771 22.3104L11.0146 22.2854L11.0167 22.2896C11.4917 22.0583 12.9333 22.0667 20.0125 22.0729L28.3896 22.0958C28.6633 22.0964 28.9259 22.2046 29.1204 22.3972C29.315 22.5898 29.4259 22.8513 29.4292 23.125L29.4667 27.0479C29.4678 27.1853 29.4416 27.3216 29.3897 27.4488C29.3379 27.576 29.2613 27.6917 29.1644 27.7891C29.0675 27.8866 28.9523 27.9639 28.8254 28.0165C28.6985 28.0692 28.5624 28.0961 28.425 28.0958H23.2271V44.775C23.2271 45.0513 23.1173 45.3162 22.922 45.5116C22.7266 45.7069 22.4617 45.8167 22.1854 45.8167ZM18.8146 43.7333H21.1437V27.0542C21.1437 26.7779 21.2535 26.5129 21.4488 26.3176C21.6442 26.1222 21.9091 26.0125 22.1854 26.0125H27.3729L27.3562 24.175L20.0083 24.1542C17.5347 24.1448 15.0611 24.1497 12.5875 24.1687L12.5833 25.1292V26.0125H17.775C18.0513 26.0125 18.3162 26.1222 18.5116 26.3176C18.7069 26.5129 18.8167 26.7779 18.8167 27.0542V43.7333H18.8146Z" fill="black"/>
</g>
<defs>
<clipPath id="clip0_14_332">
<rect width="50" height="50" fill="white"/>
</clipPath>
</defs>
</svg>
