<svg width="68" height="16" viewBox="0 0 68 16" fill="none" xmlns="http://www.w3.org/2000/svg">
<path d="M17.24 0.94C17.5467 0.94 17.84 1.06 18.12 1.3C18.4 1.52667 18.54 1.84 18.54 2.24C18.54 2.36 18.52 2.49333 18.48 2.64L14.54 14.24C14.46 14.48 14.3133 14.6667 14.1 14.8C13.9 14.92 13.6867 14.9867 13.46 15C13.2333 15 13.0067 14.9333 12.78 14.8C12.5667 14.6667 12.4 14.4733 12.28 14.22L9.32 7.5L9.5 7.62L6.58 14.22C6.46 14.4733 6.28667 14.6667 6.06 14.8C5.84667 14.9333 5.62667 15 5.4 15C5.18667 14.9867 4.97333 14.92 4.76 14.8C4.54667 14.6667 4.4 14.48 4.32 14.24L0.38 2.64C0.34 2.49333 0.32 2.36 0.32 2.24C0.32 1.84 0.46 1.52667 0.74 1.3C1.03333 1.06 1.33333 0.94 1.64 0.94C1.89333 0.94 2.12667 1.00667 2.34 1.14C2.56667 1.27333 2.72 1.46667 2.8 1.72L5.98 11.36L5.54 11.34L8.38 4.52C8.48667 4.28 8.64 4.09333 8.84 3.96C9.04 3.81333 9.26667 3.74667 9.52 3.76C9.77333 3.74667 10 3.81333 10.2 3.96C10.4 4.09333 10.5467 4.28 10.64 4.52L13.24 11.04L12.92 11.24L16.06 1.72C16.14 1.46667 16.2933 1.27333 16.52 1.14C16.7467 1.00667 16.9867 0.94 17.24 0.94ZM25.058 4.14L20.738 14.3C20.6446 14.5533 20.498 14.7533 20.298 14.9C20.1113 15.0333 19.9046 15.1 19.678 15.1C19.318 15.1 19.0513 15 18.878 14.8C18.7046 14.6 18.618 14.3533 18.618 14.06C18.618 13.94 18.638 13.8133 18.678 13.68L23.658 1.72C23.7646 1.45333 23.9246 1.24667 24.138 1.1C24.3646 0.953333 24.6046 0.893333 24.858 0.919999C25.098 0.919999 25.318 0.993332 25.518 1.14C25.7313 1.27333 25.8846 1.46667 25.978 1.72L30.898 13.44C30.9646 13.6133 30.998 13.7733 30.998 13.92C30.998 14.28 30.878 14.5667 30.638 14.78C30.4113 14.9933 30.158 15.1 29.878 15.1C29.638 15.1 29.418 15.0267 29.218 14.88C29.0313 14.7333 28.8846 14.5333 28.778 14.28L24.478 4.26L25.058 4.14ZM21.358 11.86L22.458 9.56H27.858L28.238 11.86H21.358ZM40.752 0.94C41.0587 0.94 41.332 1.06 41.572 1.3C41.8254 1.52667 41.952 1.82 41.952 2.18C41.952 2.3 41.932 2.42667 41.892 2.56C41.8654 2.68 41.812 2.8 41.732 2.92L37.192 9.42L37.552 8.04V13.78C37.552 14.1267 37.432 14.42 37.192 14.66C36.9654 14.8867 36.6987 15 36.392 15C36.0587 15 35.772 14.8867 35.532 14.66C35.3054 14.42 35.192 14.1267 35.192 13.78V8.2L35.352 8.84L31.032 3.1C30.8987 2.92667 30.8054 2.76 30.752 2.6C30.6987 2.44 30.672 2.29333 30.672 2.16C30.672 1.8 30.812 1.50667 31.092 1.28C31.372 1.05333 31.6587 0.94 31.952 0.94C32.3254 0.94 32.652 1.12667 32.932 1.5L36.772 6.8L36.212 6.72L39.752 1.54C40.032 1.14 40.3654 0.94 40.752 0.94ZM54.3661 0.999999C54.6861 0.999999 54.9461 1.10667 55.1461 1.32C55.3461 1.53333 55.4461 1.8 55.4461 2.12V13.78C55.4461 14.1267 55.3261 14.42 55.0861 14.66C54.8594 14.8867 54.5728 15 54.2261 15C54.0528 15 53.8728 14.9733 53.6861 14.92C53.5128 14.8533 53.3794 14.7667 53.2861 14.66L45.4261 4.68L45.9461 4.36V13.88C45.9461 14.2 45.8394 14.4667 45.6261 14.68C45.4261 14.8933 45.1594 15 44.8261 15C44.5061 15 44.2461 14.8933 44.0461 14.68C43.8461 14.4667 43.7461 14.2 43.7461 13.88V2.22C43.7461 1.87333 43.8594 1.58667 44.0861 1.36C44.3261 1.12 44.6194 0.999999 44.9661 0.999999C45.1528 0.999999 45.3461 1.04 45.5461 1.12C45.7461 1.18667 45.8928 1.29333 45.9861 1.44L53.6061 11.16L53.2661 11.4V2.12C53.2661 1.8 53.3661 1.53333 53.5661 1.32C53.7661 1.10667 54.0328 0.999999 54.3661 0.999999ZM59.6731 0.999999H66.3731C66.7198 0.999999 67.0065 1.11333 67.2331 1.34C67.4731 1.55333 67.5931 1.83333 67.5931 2.18C67.5931 2.51333 67.4731 2.78667 67.2331 3C67.0065 3.2 66.7198 3.3 66.3731 3.3H60.7731L60.9531 2.96V6.86L60.7931 6.7H65.4731C65.8198 6.7 66.1065 6.81333 66.3331 7.04C66.5731 7.25333 66.6931 7.53333 66.6931 7.88C66.6931 8.21333 66.5731 8.48667 66.3331 8.7C66.1065 8.9 65.8198 9 65.4731 9H60.8531L60.9531 8.84V12.88L60.7931 12.7H66.3731C66.7198 12.7 67.0065 12.82 67.2331 13.06C67.4731 13.2867 67.5931 13.5533 67.5931 13.86C67.5931 14.1933 67.4731 14.4667 67.2331 14.68C67.0065 14.8933 66.7198 15 66.3731 15H59.6731C59.3265 15 59.0331 14.8867 58.7931 14.66C58.5665 14.42 58.4531 14.1267 58.4531 13.78V2.22C58.4531 1.87333 58.5665 1.58667 58.7931 1.36C59.0331 1.12 59.3265 0.999999 59.6731 0.999999Z" fill="black"/>
</svg>
